<svg width="35" height="35" viewBox="0 0 35 35" fill="none" xmlns="http://www.w3.org/2000/svg">
<path fill-rule="evenodd" clip-rule="evenodd" d="M21.6682 0.550794C21.291 0.496715 20.912 0.608253 20.6106 0.848228C20.3007 1.09158 20.107 1.4431 20.0649 1.83686C19.9756 2.63283 20.5499 3.35276 21.3449 3.44233C26.8269 4.05409 31.088 8.32464 31.7044 13.8238C31.7869 14.5606 32.405 15.1166 33.1427 15.1166C33.1983 15.1166 33.2522 15.1132 33.3077 15.1065C33.6934 15.0642 34.037 14.8733 34.2795 14.5691C34.5204 14.2649 34.6298 13.8863 34.586 13.4993C33.818 6.63805 28.5078 1.31297 21.6682 0.550794ZM21.7735 6.43932C20.9685 6.29061 20.2291 6.80436 20.0758 7.59019C19.9226 8.37603 20.4379 9.14327 21.2211 9.29706C23.579 9.75673 25.3996 11.5819 25.861 13.9478V13.9495C25.9924 14.6306 26.592 15.1258 27.2825 15.1258C27.3751 15.1258 27.4678 15.1173 27.5621 15.1004C28.3452 14.9432 28.8606 14.1777 28.7073 13.3902C28.0185 9.85644 25.2985 7.12714 21.7735 6.43932ZM24.4488 22.6752C25.2123 22.235 26.0747 21.7377 27.1624 21.9691C28.1477 22.177 31.506 24.9029 32.4256 25.8476C33.0285 26.4661 33.3637 27.1049 33.4159 27.7437C33.5068 30.25 30.1014 33.1111 29.4816 33.4676C28.658 34.0608 27.6997 34.36 26.6235 34.36C25.5237 34.36 24.2976 34.0473 22.9604 33.4237C15.7049 30.3953 4.62116 19.5305 1.69066 12.3312C0.474668 9.65095 0.466247 7.44048 1.67045 5.77924C2.15044 5.00017 4.88726 1.7436 7.33777 1.84669C7.98955 1.90246 8.62281 2.23707 9.24428 2.84546C10.1841 3.76649 12.8417 7.13459 13.0472 8.12322C13.2746 9.2217 12.776 10.0954 12.3331 10.8627C12.2386 11.0276 12.1113 11.2233 11.9719 11.4377C11.4426 12.2516 10.7382 13.3348 10.9874 14.0263C12.7744 18.4134 16.9023 22.2412 21.2913 24.0393C21.9701 24.286 23.0527 23.5765 23.8639 23.0449C24.0752 22.9064 24.2681 22.78 24.4307 22.6857L24.4488 22.6752Z" fill="#B79F84"/>
</svg>
