<svg width="24" height="28" viewBox="0 0 24 28" fill="none" xmlns="http://www.w3.org/2000/svg">
<path d="M21.3333 27.5H2.66667C1.19391 27.5 0 26.2912 0 24.8V5.9C0 4.40883 1.19391 3.2 2.66667 3.2H5.33333V0.5H8V3.2H16V0.5H18.6667V3.2H21.3333C22.8061 3.2 24 4.40883 24 5.9V24.8C24 26.2912 22.8061 27.5 21.3333 27.5ZM2.66667 11.3V24.8H21.3333V11.3H2.66667ZM2.66667 5.9V8.6H21.3333V5.9H2.66667ZM18.6667 22.1H16V19.4H18.6667V22.1ZM13.3333 22.1H10.6667V19.4H13.3333V22.1ZM8 22.1H5.33333V19.4H8V22.1ZM18.6667 16.7H16V14H18.6667V16.7ZM13.3333 16.7H10.6667V14H13.3333V16.7ZM8 16.7H5.33333V14H8V16.7Z" fill="#B79F84"/>
</svg>
