<svg width="241" height="99" viewBox="0 0 241 99" fill="none" xmlns="http://www.w3.org/2000/svg">
<path d="M26.96 8.616L28.4 9.32C26.9707 12.1147 25.488 15.7093 23.952 20.104C24.9333 20.104 25.6053 20.1467 25.968 20.232L25.84 22.056C25.392 22.2053 24.5173 22.28 23.216 22.28C22.768 23.5173 22.5013 24.52 22.416 25.288C22.3307 26.056 22.256 26.8027 22.192 27.528C22.1493 28.2533 22.1173 28.744 22.096 29H20.304C20.1973 28.6373 20.144 28.264 20.144 27.88C20.144 26.5573 20.496 24.6907 21.2 22.28C19.92 22.28 17.9787 22.4293 15.376 22.728C15.2693 23.0693 15.0027 23.7093 14.576 24.648C14.1493 25.5653 13.7227 26.3653 13.296 27.048C12.8907 27.7307 12.336 28.4773 11.632 29.288C10.928 30.0987 10.192 30.7813 9.424 31.336C7.22667 32.9147 5.09333 33.704 3.024 33.704C2.17067 33.704 1.46667 33.4373 0.912 32.904C0.357333 32.3707 0.0799999 31.6987 0.0799999 30.888C0.0799999 28.84 1.25333 26.984 3.6 25.32C5.968 23.6347 9.24267 22.2907 13.424 21.288C15.0027 16.68 17.2213 13.3947 20.08 11.432C16.9867 11.4747 14.4373 11.9973 12.432 13C10.4267 14.0027 9.424 15.2827 9.424 16.84C9.424 17.3307 9.49867 17.7573 9.648 18.12C9.79733 18.4613 10.1493 19.0053 10.704 19.752L9.616 20.776C8.67733 20.1787 7.96267 19.4533 7.472 18.6C6.98133 17.7467 6.736 16.9253 6.736 16.136C6.736 14.8133 7.44 13.5973 8.848 12.488C10.256 11.3573 12.0053 10.4933 14.096 9.896C16.1867 9.27733 18.3093 8.968 20.464 8.968C21.552 8.968 22.2987 9.05333 22.704 9.224C23.1307 9.37333 23.344 9.672 23.344 10.12C23.344 10.5467 23.0347 10.952 22.416 11.336C19.7493 13 17.6053 16.1573 15.984 20.808C17.2427 20.5947 19.1947 20.36 21.84 20.104C22.864 17.1173 23.6853 14.9093 24.304 13.48C24.944 12.0293 25.8293 10.408 26.96 8.616ZM5.584 31.496C6.37333 31.496 7.29067 31.144 8.336 30.44C9.40267 29.7573 10.288 28.8613 10.992 27.752C11.7173 26.6213 12.336 25.0747 12.848 23.112C10.0107 23.5813 7.71733 24.4133 5.968 25.608C4.24 26.7813 3.376 28.1147 3.376 29.608C3.376 30.2053 3.54667 30.664 3.888 30.984C4.25067 31.3253 4.816 31.496 5.584 31.496ZM44.0555 25.768L44.7915 26.312C44.4928 26.952 43.9382 27.56 43.1275 28.136C42.3382 28.712 41.6128 29 40.9515 29C39.6928 29 39.0635 28.3387 39.0635 27.016C39.0635 26.3973 39.2235 25.6613 39.5435 24.808L38.3595 26.024C37.2075 27.1973 36.2048 27.9867 35.3515 28.392C34.5195 28.7973 33.6982 29 32.8875 29C32.0768 29 31.4582 28.776 31.0315 28.328C30.6262 27.8587 30.4235 27.2187 30.4235 26.408C30.4235 24.9147 30.9995 23.4427 32.1515 21.992C33.3035 20.52 34.7755 19.3253 36.5675 18.408C38.3595 17.4907 40.1515 17.0213 41.9435 17L42.0075 18.056L40.6635 18.344C38.7222 18.7707 37.0048 19.624 35.5115 20.904C34.0395 22.184 33.3035 23.464 33.3035 24.744C33.3035 26.0027 33.8155 26.632 34.8395 26.632C35.7995 26.632 36.9835 25.96 38.3915 24.616C39.7995 23.272 40.9728 21.6933 41.9115 19.88L43.2555 20.68C41.9328 23.3467 41.2715 25.0427 41.2715 25.768C41.2715 26.0667 41.3675 26.3227 41.5595 26.536C41.7728 26.728 41.9755 26.824 42.1675 26.824C42.3808 26.824 42.5195 26.8133 42.5835 26.792C42.6475 26.7707 42.7115 26.7493 42.7755 26.728C42.8395 26.6853 42.9142 26.632 42.9995 26.568C43.1062 26.504 43.1915 26.44 43.2555 26.376C43.3408 26.312 43.4688 26.216 43.6395 26.088C43.8102 25.96 43.9488 25.8533 44.0555 25.768ZM62.1438 25.192C62.1438 25.6187 62.2398 25.9493 62.4318 26.184C62.6451 26.4187 62.8584 26.536 63.0718 26.536C63.2851 26.536 63.4451 26.5253 63.5518 26.504C63.6584 26.4827 63.7651 26.44 63.8718 26.376C63.9784 26.2907 64.0638 26.2267 64.1278 26.184C64.2131 26.1413 64.3091 26.0667 64.4158 25.96C64.5438 25.832 64.6291 25.7467 64.6718 25.704C64.7571 25.576 64.9064 25.4053 65.1198 25.192L65.7918 25.736C65.4078 26.632 64.8211 27.3893 64.0318 28.008C63.2638 28.6267 62.5704 28.936 61.9518 28.936C61.3331 28.936 60.8424 28.712 60.4798 28.264C60.1171 27.816 59.9358 27.2507 59.9358 26.568C59.9358 25.864 60.0531 24.9573 60.2878 23.848C59.2638 25.4693 58.2291 26.7173 57.1838 27.592C56.1598 28.4667 55.2318 28.904 54.3998 28.904C53.2478 28.904 52.6718 28.168 52.6718 26.696C52.6718 26.2267 52.8211 25.288 53.1198 23.88C52.0958 25.48 51.0504 26.728 49.9838 27.624C48.9384 28.4987 47.9998 28.936 47.1678 28.936C46.0158 28.936 45.4398 28.2213 45.4398 26.792C45.4398 25.3627 45.9304 23.4533 46.9118 21.064C47.8931 18.6533 48.6078 17.256 49.0558 16.872L50.5918 17.544C49.8664 18.7173 49.2371 20.072 48.7038 21.608C48.1918 23.1227 47.9358 24.0933 47.9358 24.52C47.9358 24.9253 48.0531 25.288 48.2878 25.608C48.5224 25.9067 48.7784 26.056 49.0558 26.056C49.8451 26.056 51.0611 24.904 52.7038 22.6C54.3678 20.296 55.4878 18.3333 56.0638 16.712L57.9838 17.544C57.5571 18.12 56.9811 19.2827 56.2558 21.032C55.5304 22.76 55.1678 23.8693 55.1678 24.36C55.1678 24.8507 55.3171 25.2347 55.6158 25.512C55.9144 25.7893 56.2131 25.928 56.5118 25.928C57.2798 25.928 58.4104 24.9573 59.9038 23.016C61.4184 21.0533 62.5811 18.9733 63.3918 16.776L65.2798 17.608C65.1518 17.8853 64.7998 18.5893 64.2238 19.72C62.8371 22.344 62.1438 24.168 62.1438 25.192ZM72.9493 15.432C71.7546 15.432 71.1573 14.952 71.1573 13.992C71.1573 13.4587 71.3066 13.0107 71.6053 12.648C71.9039 12.2853 72.2879 12.104 72.7573 12.104C73.2266 12.104 73.6106 12.2427 73.9093 12.52C74.2079 12.7973 74.3573 13.16 74.3573 13.608C74.3573 14.056 74.2293 14.472 73.9733 14.856C73.7173 15.24 73.3759 15.432 72.9493 15.432ZM72.5333 24.872L73.1733 25.416C72.6613 26.3973 71.9786 27.24 71.1253 27.944C70.2933 28.6267 69.5359 28.968 68.8533 28.968C67.6586 28.968 67.0613 28.136 67.0613 26.472C67.0613 24.4027 67.9146 21.704 69.6213 18.376C70.0053 17.6507 70.2293 17.224 70.2933 17.096L71.6693 17.928C71.2213 18.7387 70.6666 20.0293 70.0052 21.8C69.3653 23.5707 69.0453 24.712 69.0453 25.224C69.0453 25.7147 69.1519 26.0667 69.3653 26.28C69.5786 26.4933 69.8346 26.6 70.1333 26.6C70.7093 26.6 71.5093 26.024 72.5333 24.872Z" fill="#B79F84"/>
<path d="M28.928 87L17.552 70.632L22.592 67.512L35.984 87H28.928ZM6.704 87V53.4H12.848V87H6.704ZM10.976 72.84V67.464H22.304V72.84H10.976ZM23.168 70.92L17.456 70.152L28.928 53.4H35.552L23.168 70.92ZM50.6435 87.336C48.0195 87.336 45.6835 86.776 43.6355 85.656C41.5875 84.504 39.9715 82.936 38.7875 80.952C37.6035 78.968 37.0115 76.712 37.0115 74.184C37.0115 71.624 37.6035 69.368 38.7875 67.416C39.9715 65.432 41.5875 63.88 43.6355 62.76C45.6835 61.64 48.0195 61.08 50.6435 61.08C53.2995 61.08 55.6515 61.64 57.6995 62.76C59.7795 63.88 61.3955 65.416 62.5475 67.368C63.7315 69.32 64.3235 71.592 64.3235 74.184C64.3235 76.712 63.7315 78.968 62.5475 80.952C61.3955 82.936 59.7795 84.504 57.6995 85.656C55.6515 86.776 53.2995 87.336 50.6435 87.336ZM50.6435 82.2C52.1155 82.2 53.4275 81.88 54.5795 81.24C55.7315 80.6 56.6275 79.672 57.2675 78.456C57.9395 77.24 58.2755 75.816 58.2755 74.184C58.2755 72.52 57.9395 71.096 57.2675 69.912C56.6275 68.696 55.7315 67.768 54.5795 67.128C53.4275 66.488 52.1315 66.168 50.6915 66.168C49.2195 66.168 47.9075 66.488 46.7555 67.128C45.6355 67.768 44.7395 68.696 44.0675 69.912C43.3955 71.096 43.0595 72.52 43.0595 74.184C43.0595 75.816 43.3955 77.24 44.0675 78.456C44.7395 79.672 45.6355 80.6 46.7555 81.24C47.9075 81.88 49.2035 82.2 50.6435 82.2ZM70.2508 87V61.368H76.2508V71.784H89.1628V61.368H95.1628V87H89.1628V76.872H76.2508V87H70.2508ZM108.532 87V65.016L109.924 66.456H99.5079V61.368H123.508V66.456H113.14L114.532 65.016V87H108.532ZM143.412 87V81.816L143.076 80.712V71.64C143.076 69.88 142.548 68.52 141.492 67.56C140.436 66.568 138.836 66.072 136.692 66.072C135.252 66.072 133.828 66.296 132.42 66.744C131.044 67.192 129.876 67.816 128.916 68.616L126.564 64.248C127.94 63.192 129.572 62.408 131.46 61.896C133.38 61.352 135.364 61.08 137.412 61.08C141.124 61.08 143.988 61.976 146.004 63.768C148.052 65.528 149.076 68.264 149.076 71.976V87H143.412ZM135.348 87.336C133.428 87.336 131.748 87.016 130.308 86.376C128.868 85.704 127.748 84.792 126.948 83.64C126.18 82.456 125.796 81.128 125.796 79.656C125.796 78.216 126.132 76.92 126.804 75.768C127.508 74.616 128.644 73.704 130.212 73.032C131.78 72.36 133.86 72.024 136.452 72.024H143.892V76.008H136.884C134.836 76.008 133.46 76.344 132.756 77.016C132.052 77.656 131.7 78.456 131.7 79.416C131.7 80.504 132.132 81.368 132.996 82.008C133.86 82.648 135.06 82.968 136.596 82.968C138.068 82.968 139.38 82.632 140.532 81.96C141.716 81.288 142.564 80.296 143.076 78.984L144.084 82.584C143.508 84.088 142.468 85.256 140.964 86.088C139.492 86.92 137.62 87.336 135.348 87.336ZM174.885 87L165.621 74.712L170.517 71.688L181.941 87H174.885ZM156.501 87V61.368H162.501V87H156.501ZM160.725 76.728V71.736H169.413V76.728H160.725ZM171.093 74.904L165.477 74.232L174.885 61.368H181.317L171.093 74.904ZM191.173 87V65.016L192.565 66.456H182.149V61.368H206.149V66.456H195.781L197.173 65.016V87H191.173ZM210.501 87V61.368H216.501V78.264L230.661 61.368H236.133V87H230.133V70.104L216.021 87H210.501Z" fill="white"/>
</svg>
