<svg width="209" height="99" viewBox="0 0 209 99" fill="none" xmlns="http://www.w3.org/2000/svg">
<path d="M26.96 8.616L28.4 9.32C26.9707 12.1147 25.488 15.7093 23.952 20.104C24.9333 20.104 25.6053 20.1467 25.968 20.232L25.84 22.056C25.392 22.2053 24.5173 22.28 23.216 22.28C22.768 23.5173 22.5013 24.52 22.416 25.288C22.3307 26.056 22.256 26.8027 22.192 27.528C22.1493 28.2533 22.1173 28.744 22.096 29H20.304C20.1973 28.6373 20.144 28.264 20.144 27.88C20.144 26.5573 20.496 24.6907 21.2 22.28C19.92 22.28 17.9787 22.4293 15.376 22.728C15.2693 23.0693 15.0027 23.7093 14.576 24.648C14.1493 25.5653 13.7227 26.3653 13.296 27.048C12.8907 27.7307 12.336 28.4773 11.632 29.288C10.928 30.0987 10.192 30.7813 9.424 31.336C7.22667 32.9147 5.09333 33.704 3.024 33.704C2.17067 33.704 1.46667 33.4373 0.912 32.904C0.357333 32.3707 0.0799999 31.6987 0.0799999 30.888C0.0799999 28.84 1.25333 26.984 3.6 25.32C5.968 23.6347 9.24267 22.2907 13.424 21.288C15.0027 16.68 17.2213 13.3947 20.08 11.432C16.9867 11.4747 14.4373 11.9973 12.432 13C10.4267 14.0027 9.424 15.2827 9.424 16.84C9.424 17.3307 9.49867 17.7573 9.648 18.12C9.79733 18.4613 10.1493 19.0053 10.704 19.752L9.616 20.776C8.67733 20.1787 7.96267 19.4533 7.472 18.6C6.98133 17.7467 6.736 16.9253 6.736 16.136C6.736 14.8133 7.44 13.5973 8.848 12.488C10.256 11.3573 12.0053 10.4933 14.096 9.896C16.1867 9.27733 18.3093 8.968 20.464 8.968C21.552 8.968 22.2987 9.05333 22.704 9.224C23.1307 9.37333 23.344 9.672 23.344 10.12C23.344 10.5467 23.0347 10.952 22.416 11.336C19.7493 13 17.6053 16.1573 15.984 20.808C17.2427 20.5947 19.1947 20.36 21.84 20.104C22.864 17.1173 23.6853 14.9093 24.304 13.48C24.944 12.0293 25.8293 10.408 26.96 8.616ZM5.584 31.496C6.37333 31.496 7.29067 31.144 8.336 30.44C9.40267 29.7573 10.288 28.8613 10.992 27.752C11.7173 26.6213 12.336 25.0747 12.848 23.112C10.0107 23.5813 7.71733 24.4133 5.968 25.608C4.24 26.7813 3.376 28.1147 3.376 29.608C3.376 30.2053 3.54667 30.664 3.888 30.984C4.25067 31.3253 4.816 31.496 5.584 31.496ZM44.0555 25.768L44.7915 26.312C44.4928 26.952 43.9382 27.56 43.1275 28.136C42.3382 28.712 41.6128 29 40.9515 29C39.6928 29 39.0635 28.3387 39.0635 27.016C39.0635 26.3973 39.2235 25.6613 39.5435 24.808L38.3595 26.024C37.2075 27.1973 36.2048 27.9867 35.3515 28.392C34.5195 28.7973 33.6982 29 32.8875 29C32.0768 29 31.4582 28.776 31.0315 28.328C30.6262 27.8587 30.4235 27.2187 30.4235 26.408C30.4235 24.9147 30.9995 23.4427 32.1515 21.992C33.3035 20.52 34.7755 19.3253 36.5675 18.408C38.3595 17.4907 40.1515 17.0213 41.9435 17L42.0075 18.056L40.6635 18.344C38.7222 18.7707 37.0048 19.624 35.5115 20.904C34.0395 22.184 33.3035 23.464 33.3035 24.744C33.3035 26.0027 33.8155 26.632 34.8395 26.632C35.7995 26.632 36.9835 25.96 38.3915 24.616C39.7995 23.272 40.9728 21.6933 41.9115 19.88L43.2555 20.68C41.9328 23.3467 41.2715 25.0427 41.2715 25.768C41.2715 26.0667 41.3675 26.3227 41.5595 26.536C41.7728 26.728 41.9755 26.824 42.1675 26.824C42.3808 26.824 42.5195 26.8133 42.5835 26.792C42.6475 26.7707 42.7115 26.7493 42.7755 26.728C42.8395 26.6853 42.9142 26.632 42.9995 26.568C43.1062 26.504 43.1915 26.44 43.2555 26.376C43.3408 26.312 43.4688 26.216 43.6395 26.088C43.8102 25.96 43.9488 25.8533 44.0555 25.768ZM62.1438 25.192C62.1438 25.6187 62.2398 25.9493 62.4318 26.184C62.6451 26.4187 62.8584 26.536 63.0718 26.536C63.2851 26.536 63.4451 26.5253 63.5518 26.504C63.6584 26.4827 63.7651 26.44 63.8718 26.376C63.9784 26.2907 64.0638 26.2267 64.1278 26.184C64.2131 26.1413 64.3091 26.0667 64.4158 25.96C64.5438 25.832 64.6291 25.7467 64.6718 25.704C64.7571 25.576 64.9064 25.4053 65.1198 25.192L65.7918 25.736C65.4078 26.632 64.8211 27.3893 64.0318 28.008C63.2638 28.6267 62.5704 28.936 61.9518 28.936C61.3331 28.936 60.8424 28.712 60.4798 28.264C60.1171 27.816 59.9358 27.2507 59.9358 26.568C59.9358 25.864 60.0531 24.9573 60.2878 23.848C59.2638 25.4693 58.2291 26.7173 57.1838 27.592C56.1598 28.4667 55.2318 28.904 54.3998 28.904C53.2478 28.904 52.6718 28.168 52.6718 26.696C52.6718 26.2267 52.8211 25.288 53.1198 23.88C52.0958 25.48 51.0504 26.728 49.9838 27.624C48.9384 28.4987 47.9998 28.936 47.1678 28.936C46.0158 28.936 45.4398 28.2213 45.4398 26.792C45.4398 25.3627 45.9304 23.4533 46.9118 21.064C47.8931 18.6533 48.6078 17.256 49.0558 16.872L50.5918 17.544C49.8664 18.7173 49.2371 20.072 48.7038 21.608C48.1918 23.1227 47.9358 24.0933 47.9358 24.52C47.9358 24.9253 48.0531 25.288 48.2878 25.608C48.5224 25.9067 48.7784 26.056 49.0558 26.056C49.8451 26.056 51.0611 24.904 52.7038 22.6C54.3678 20.296 55.4878 18.3333 56.0638 16.712L57.9838 17.544C57.5571 18.12 56.9811 19.2827 56.2558 21.032C55.5304 22.76 55.1678 23.8693 55.1678 24.36C55.1678 24.8507 55.3171 25.2347 55.6158 25.512C55.9144 25.7893 56.2131 25.928 56.5118 25.928C57.2798 25.928 58.4104 24.9573 59.9038 23.016C61.4184 21.0533 62.5811 18.9733 63.3918 16.776L65.2798 17.608C65.1518 17.8853 64.7998 18.5893 64.2238 19.72C62.8371 22.344 62.1438 24.168 62.1438 25.192ZM72.9493 15.432C71.7546 15.432 71.1573 14.952 71.1573 13.992C71.1573 13.4587 71.3066 13.0107 71.6053 12.648C71.9039 12.2853 72.2879 12.104 72.7573 12.104C73.2266 12.104 73.6106 12.2427 73.9093 12.52C74.2079 12.7973 74.3573 13.16 74.3573 13.608C74.3573 14.056 74.2293 14.472 73.9733 14.856C73.7173 15.24 73.3759 15.432 72.9493 15.432ZM72.5333 24.872L73.1733 25.416C72.6613 26.3973 71.9786 27.24 71.1253 27.944C70.2933 28.6267 69.5359 28.968 68.8533 28.968C67.6586 28.968 67.0613 28.136 67.0613 26.472C67.0613 24.4027 67.9146 21.704 69.6213 18.376C70.0053 17.6507 70.2293 17.224 70.2933 17.096L71.6693 17.928C71.2213 18.7387 70.6666 20.0293 70.0052 21.8C69.3653 23.5707 69.0453 24.712 69.0453 25.224C69.0453 25.7147 69.1519 26.0667 69.3653 26.28C69.5786 26.4933 69.8346 26.6 70.1333 26.6C70.7093 26.6 71.5093 26.024 72.5333 24.872Z" fill="#B79F84"/>
<path d="M30.32 53.4H36.56V87H30.32V53.4ZM12.944 87H6.704V53.4H12.944V87ZM30.8 72.6H12.416V67.272H30.8V72.6ZM56.7373 87.336C54.1133 87.336 51.7773 86.776 49.7293 85.656C47.6813 84.504 46.0653 82.936 44.8813 80.952C43.6973 78.968 43.1053 76.712 43.1053 74.184C43.1053 71.624 43.6973 69.368 44.8813 67.416C46.0653 65.432 47.6813 63.88 49.7293 62.76C51.7773 61.64 54.1133 61.08 56.7373 61.08C59.3933 61.08 61.7453 61.64 63.7933 62.76C65.8733 63.88 67.4893 65.416 68.6413 67.368C69.8253 69.32 70.4173 71.592 70.4173 74.184C70.4173 76.712 69.8253 78.968 68.6413 80.952C67.4893 82.936 65.8733 84.504 63.7933 85.656C61.7453 86.776 59.3933 87.336 56.7373 87.336ZM56.7373 82.2C58.2093 82.2 59.5213 81.88 60.6733 81.24C61.8253 80.6 62.7213 79.672 63.3613 78.456C64.0333 77.24 64.3693 75.816 64.3693 74.184C64.3693 72.52 64.0333 71.096 63.3613 69.912C62.7213 68.696 61.8253 67.768 60.6733 67.128C59.5213 66.488 58.2253 66.168 56.7853 66.168C55.3133 66.168 54.0013 66.488 52.8493 67.128C51.7293 67.768 50.8333 68.696 50.1613 69.912C49.4893 71.096 49.1533 72.52 49.1533 74.184C49.1533 75.816 49.4893 77.24 50.1613 78.456C50.8333 79.672 51.7293 80.6 52.8493 81.24C54.0013 81.88 55.2973 82.2 56.7373 82.2ZM76.3445 87V61.368H82.6325L92.9525 79.56H90.4565L101.305 61.368H106.921L106.969 87H101.545V67.8L102.505 68.424L92.9045 84.312H90.3125L80.6645 67.992L81.8165 67.704V87H76.3445ZM126.968 87.336C124.12 87.336 121.624 86.776 119.48 85.656C117.368 84.504 115.72 82.936 114.536 80.952C113.384 78.968 112.808 76.712 112.808 74.184C112.808 71.624 113.368 69.368 114.488 67.416C115.64 65.432 117.208 63.88 119.192 62.76C121.208 61.64 123.496 61.08 126.056 61.08C128.552 61.08 130.776 61.624 132.728 62.712C134.68 63.8 136.216 65.336 137.336 67.32C138.456 69.304 139.016 71.64 139.016 74.328C139.016 74.584 139 74.872 138.968 75.192C138.968 75.512 138.952 75.816 138.92 76.104H117.56V72.12H135.752L133.4 73.368C133.432 71.896 133.128 70.6 132.488 69.48C131.848 68.36 130.968 67.48 129.848 66.84C128.76 66.2 127.496 65.88 126.056 65.88C124.584 65.88 123.288 66.2 122.168 66.84C121.08 67.48 120.216 68.376 119.576 69.528C118.968 70.648 118.664 71.976 118.664 73.512V74.472C118.664 76.008 119.016 77.368 119.72 78.552C120.424 79.736 121.416 80.648 122.696 81.288C123.976 81.928 125.448 82.248 127.112 82.248C128.552 82.248 129.848 82.024 131 81.576C132.152 81.128 133.176 80.424 134.072 79.464L137.288 83.16C136.136 84.504 134.68 85.544 132.92 86.28C131.192 86.984 129.208 87.336 126.968 87.336ZM159.787 87.336C157.707 87.336 155.803 86.856 154.075 85.896C152.379 84.936 151.019 83.496 149.995 81.576C149.003 79.624 148.507 77.16 148.507 74.184C148.507 71.176 148.987 68.712 149.947 66.792C150.939 64.872 152.283 63.448 153.979 62.52C155.675 61.56 157.611 61.08 159.787 61.08C162.315 61.08 164.539 61.624 166.459 62.712C168.411 63.8 169.947 65.32 171.067 67.272C172.219 69.224 172.795 71.528 172.795 74.184C172.795 76.84 172.219 79.16 171.067 81.144C169.947 83.096 168.411 84.616 166.459 85.704C164.539 86.792 162.315 87.336 159.787 87.336ZM145.579 96.312V61.368H151.291V67.416L151.099 74.232L151.579 81.048V96.312H145.579ZM159.115 82.2C160.555 82.2 161.835 81.88 162.955 81.24C164.107 80.6 165.019 79.672 165.691 78.456C166.363 77.24 166.699 75.816 166.699 74.184C166.699 72.52 166.363 71.096 165.691 69.912C165.019 68.696 164.107 67.768 162.955 67.128C161.835 66.488 160.555 66.168 159.115 66.168C157.675 66.168 156.379 66.488 155.227 67.128C154.075 67.768 153.163 68.696 152.491 69.912C151.819 71.096 151.483 72.52 151.483 74.184C151.483 75.816 151.819 77.24 152.491 78.456C153.163 79.672 154.075 80.6 155.227 81.24C156.379 81.88 157.675 82.2 159.115 82.2ZM178.766 87V61.368H184.766V78.264L198.926 61.368H204.398V87H198.398V70.104L184.286 87H178.766Z" fill="#281A08"/>
<path d="M30.32 53.4V52.4H29.32V53.4H30.32ZM36.56 53.4H37.56V52.4H36.56V53.4ZM36.56 87V88H37.56V87H36.56ZM30.32 87H29.32V88H30.32V87ZM12.944 87V88H13.944V87H12.944ZM6.704 87H5.704V88H6.704V87ZM6.704 53.4V52.4H5.704V53.4H6.704ZM12.944 53.4H13.944V52.4H12.944V53.4ZM30.8 72.6V73.6H31.8V72.6H30.8ZM12.416 72.6H11.416V73.6H12.416V72.6ZM12.416 67.272V66.272H11.416V67.272H12.416ZM30.8 67.272H31.8V66.272H30.8V67.272ZM30.32 54.4H36.56V52.4H30.32V54.4ZM35.56 53.4V87H37.56V53.4H35.56ZM36.56 86H30.32V88H36.56V86ZM31.32 87V53.4H29.32V87H31.32ZM12.944 86H6.704V88H12.944V86ZM7.704 87V53.4H5.704V87H7.704ZM6.704 54.4H12.944V52.4H6.704V54.4ZM11.944 53.4V87H13.944V53.4H11.944ZM30.8 71.6H12.416V73.6H30.8V71.6ZM13.416 72.6V67.272H11.416V72.6H13.416ZM12.416 68.272H30.8V66.272H12.416V68.272ZM29.8 67.272V72.6H31.8V67.272H29.8ZM49.7293 85.656L49.239 86.5276L49.2494 86.5334L49.7293 85.656ZM44.8812 80.952L44.0225 81.4645L44.8812 80.952ZM44.8812 67.416L45.7363 67.9346L45.74 67.9285L44.8812 67.416ZM49.7293 62.76L50.2091 63.6374L49.7293 62.76ZM63.7933 62.76L63.3134 63.6374L63.3192 63.6405L63.7933 62.76ZM68.6413 67.368L67.78 67.8763L67.7862 67.8866L68.6413 67.368ZM68.6413 80.952L67.7825 80.4395L67.7765 80.4499L68.6413 80.952ZM63.7933 85.656L64.2731 86.5334L64.2778 86.5308L63.7933 85.656ZM60.6733 81.24L60.1876 80.3658L60.6733 81.24ZM63.3613 78.456L62.486 77.9723L62.4811 77.9812L62.4763 77.9903L63.3613 78.456ZM63.3613 69.912L62.4763 70.3777L62.4837 70.3918L62.4916 70.4056L63.3613 69.912ZM60.6733 67.128L61.1589 66.2538L60.6733 67.128ZM52.8493 67.128L52.3636 66.2538L52.3531 66.2598L52.8493 67.128ZM50.1613 69.912L51.031 70.4056L51.0365 70.3957L50.1613 69.912ZM50.1613 78.456L49.286 78.9397L50.1613 78.456ZM52.8493 81.24L52.3531 82.1083L52.3636 82.1142L52.8493 81.24ZM56.7373 86.336C54.2598 86.336 52.0924 85.8086 50.2091 84.7786L49.2494 86.5334C51.4621 87.7434 53.9667 88.336 56.7373 88.336V86.336ZM50.2195 84.7844C48.3208 83.7164 46.833 82.2711 45.74 80.4395L44.0225 81.4645C45.2975 83.6009 47.0417 85.2916 49.239 86.5276L50.2195 84.7844ZM45.74 80.4395C44.657 78.6249 44.1053 76.5491 44.1053 74.184H42.1053C42.1053 76.8749 42.7375 79.3111 44.0225 81.4645L45.74 80.4395ZM44.1053 74.184C44.1053 71.7841 44.6583 69.7119 45.7363 67.9346L44.0262 66.8974C42.7362 69.0241 42.1053 71.4639 42.1053 74.184H44.1053ZM45.74 67.9285C46.8315 66.0994 48.316 64.6727 50.2091 63.6374L49.2494 61.8826C47.0465 63.0873 45.299 64.7646 44.0225 66.9035L45.74 67.9285ZM50.2091 63.6374C52.0924 62.6074 54.2598 62.08 56.7373 62.08V60.08C53.9667 60.08 51.4621 60.6726 49.2494 61.8826L50.2091 63.6374ZM56.7373 62.08C59.249 62.08 61.4318 62.6084 63.3134 63.6374L64.2731 61.8826C62.0587 60.6716 59.5375 60.08 56.7373 60.08V62.08ZM63.3192 63.6405C65.2457 64.6778 66.7247 66.0881 67.78 67.8763L69.5025 66.8597C68.2538 64.7439 66.5008 63.0822 64.2673 61.8795L63.3192 63.6405ZM67.7862 67.8866C68.8631 69.6619 69.4173 71.7496 69.4173 74.184H71.4173C71.4173 71.4344 70.7874 68.9781 69.4963 66.8494L67.7862 67.8866ZM69.4173 74.184C69.4173 76.5491 68.8655 78.6249 67.7825 80.4395L69.5 81.4645C70.785 79.3111 71.4173 76.8749 71.4173 74.184H69.4173ZM67.7765 80.4499C66.7186 82.2717 65.2367 83.7134 63.3088 84.7812L64.2778 86.5308C66.5098 85.2946 68.2599 83.6003 69.506 81.4541L67.7765 80.4499ZM63.3134 84.7786C61.4318 85.8076 59.249 86.336 56.7373 86.336V88.336C59.5375 88.336 62.0587 87.7444 64.2731 86.5334L63.3134 84.7786ZM56.7373 83.2C58.3589 83.2 59.8416 82.846 61.1589 82.1142L60.1876 80.3658C59.2009 80.914 58.0596 81.2 56.7373 81.2V83.2ZM61.1589 82.1142C62.4884 81.3756 63.5197 80.3021 64.2462 78.9217L62.4763 77.9903C61.9228 79.0419 61.1621 79.8244 60.1876 80.3658L61.1589 82.1142ZM64.2365 78.9397C65.0036 77.5516 65.3693 75.9555 65.3693 74.184H63.3693C63.3693 75.6765 63.0629 76.9284 62.486 77.9723L64.2365 78.9397ZM65.3693 74.184C65.3693 72.3852 65.0054 70.783 64.2309 69.4184L62.4916 70.4056C63.0611 71.409 63.3693 72.6548 63.3693 74.184H65.3693ZM64.2462 69.4463C63.5197 68.0659 62.4884 66.9924 61.1589 66.2538L60.1876 68.0022C61.1621 68.5436 61.9228 69.3261 62.4763 70.3777L64.2462 69.4463ZM61.1589 66.2538C59.8448 65.5238 58.379 65.168 56.7853 65.168V67.168C58.0715 67.168 59.1977 67.4522 60.1876 68.0022L61.1589 66.2538ZM56.7853 65.168C55.1636 65.168 53.6809 65.522 52.3636 66.2538L53.3349 68.0022C54.3216 67.454 55.4629 67.168 56.7853 67.168V65.168ZM52.3531 66.2598C51.0616 66.9978 50.0396 68.0646 49.286 69.4283L51.0365 70.3957C51.6269 69.3274 52.3969 68.5382 53.3454 67.9962L52.3531 66.2598ZM49.2916 69.4184C48.5171 70.783 48.1533 72.3852 48.1533 74.184H50.1533C50.1533 72.6548 50.4614 71.409 51.0309 70.4056L49.2916 69.4184ZM48.1533 74.184C48.1533 75.9555 48.5189 77.5516 49.286 78.9397L51.0365 77.9723C50.4596 76.9284 50.1533 75.6765 50.1533 74.184H48.1533ZM49.286 78.9397C50.0396 80.3034 51.0616 81.3702 52.3531 82.1082L53.3454 80.3718C52.3969 79.8298 51.6269 79.0406 51.0365 77.9723L49.286 78.9397ZM52.3636 82.1142C53.6777 82.8442 55.1435 83.2 56.7373 83.2V81.2C55.451 81.2 54.3248 80.9158 53.3349 80.3658L52.3636 82.1142ZM76.3445 87H75.3445V88H76.3445V87ZM76.3445 61.368V60.368H75.3445V61.368H76.3445ZM82.6325 61.368L83.5023 60.8746L83.2149 60.368H82.6325V61.368ZM92.9525 79.56V80.56H94.6695L93.8223 79.0666L92.9525 79.56ZM90.4565 79.56L89.5976 79.0478L88.6959 80.56H90.4565V79.56ZM101.305 61.368V60.368H100.737L100.446 60.8558L101.305 61.368ZM106.921 61.368L107.921 61.3661L107.919 60.368H106.921V61.368ZM106.969 87V88H107.97L107.968 86.9981L106.969 87ZM101.545 87H100.545V88H101.545V87ZM101.545 67.8L102.089 66.9616L100.545 65.9573V67.8H101.545ZM102.505 68.424L103.36 68.9412L103.861 68.1129L103.049 67.5856L102.505 68.424ZM92.9045 84.312V85.312H93.4686L93.7604 84.8292L92.9045 84.312ZM90.3125 84.312L89.4517 84.8209L89.742 85.312H90.3125V84.312ZM80.6645 67.992L80.422 67.0219L79.1215 67.347L79.8037 68.5009L80.6645 67.992ZM81.8165 67.704H82.8165V66.4232L81.574 66.7339L81.8165 67.704ZM81.8165 87V88H82.8165V87H81.8165ZM77.3445 87V61.368H75.3445V87H77.3445ZM76.3445 62.368H82.6325V60.368H76.3445V62.368ZM81.7627 61.8614L92.0827 80.0534L93.8223 79.0666L83.5023 60.8746L81.7627 61.8614ZM92.9525 78.56H90.4565V80.56H92.9525V78.56ZM91.3154 80.0722L102.163 61.8802L100.446 60.8558L89.5976 79.0478L91.3154 80.0722ZM101.305 62.368H106.921V60.368H101.305V62.368ZM105.921 61.3699L105.969 87.0019L107.968 86.9981L107.921 61.3661L105.921 61.3699ZM106.969 86H101.545V88H106.969V86ZM102.545 87V67.8H100.545V87H102.545ZM101 68.6384L101.96 69.2624L103.049 67.5856L102.089 66.9616L101 68.6384ZM101.649 67.9068L92.0486 83.7948L93.7604 84.8292L103.36 68.9412L101.649 67.9068ZM92.9045 83.312H90.3125V85.312H92.9045V83.312ZM91.1733 83.8031L81.5253 67.4831L79.8037 68.5009L89.4517 84.8209L91.1733 83.8031ZM80.907 68.9621L82.059 68.6741L81.574 66.7339L80.422 67.0219L80.907 68.9621ZM80.8165 67.704V87H82.8165V67.704H80.8165ZM81.8165 86H76.3445V88H81.8165V86ZM119.48 85.656L119.002 86.5339L119.009 86.5382L119.017 86.5423L119.48 85.656ZM114.536 80.952L113.672 81.4542L113.678 81.4645L114.536 80.952ZM114.488 67.416L113.624 66.9139L113.621 66.9183L114.488 67.416ZM119.192 62.76L118.707 61.8858L118.701 61.8892L119.192 62.76ZM132.728 62.712L133.215 61.8385L132.728 62.712ZM138.968 75.192L137.973 75.0925L137.968 75.1421V75.192H138.968ZM138.92 76.104V77.104H139.815L139.914 76.2144L138.92 76.104ZM117.56 76.104H116.56V77.104H117.56V76.104ZM117.56 72.12V71.12H116.56V72.12H117.56ZM135.752 72.12L136.221 73.0033L135.752 71.12V72.12ZM133.4 73.368L132.401 73.3463L132.364 75.0502L133.869 74.2514L133.4 73.368ZM132.488 69.48L131.62 69.9761L132.488 69.48ZM129.848 66.84L129.341 67.702L129.352 67.7082L129.848 66.84ZM122.168 66.84L121.672 65.9717L121.661 65.9781L122.168 66.84ZM119.576 69.528L118.702 69.0423L118.698 69.0509L119.576 69.528ZM122.696 81.288L122.249 82.1824L122.696 81.288ZM131 81.576L131.363 82.508L131 81.576ZM134.072 79.464L134.827 78.8076L134.098 77.9705L133.341 78.7817L134.072 79.464ZM137.288 83.16L138.048 83.8108L138.61 83.1551L138.043 82.5036L137.288 83.16ZM132.92 86.28L133.298 87.2061L133.306 87.2026L132.92 86.28ZM126.968 86.336C124.253 86.336 121.921 85.8028 119.943 84.7696L119.017 86.5423C121.328 87.7492 123.988 88.336 126.968 88.336V86.336ZM119.959 84.7781C117.997 83.7081 116.484 82.2635 115.395 80.4395L113.678 81.4645C114.957 83.6085 116.739 85.2999 119.002 86.5339L119.959 84.7781ZM115.401 80.4499C114.347 78.6336 113.808 76.5541 113.808 74.184H111.808C111.808 76.8699 112.422 79.3024 113.672 81.4541L115.401 80.4499ZM113.808 74.184C113.808 71.7742 114.334 69.6943 115.356 67.9137L113.621 66.9183C112.403 69.0417 111.808 71.4738 111.808 74.184H113.808ZM115.353 67.9181C116.416 66.0869 117.856 64.6627 119.684 63.6308L118.701 61.8892C116.561 63.0973 114.864 64.7771 113.624 66.9139L115.353 67.9181ZM119.678 63.6342C121.53 62.6055 123.647 62.08 126.056 62.08V60.08C123.346 60.08 120.887 60.6745 118.707 61.8858L119.678 63.6342ZM126.056 62.08C128.402 62.08 130.455 62.5898 132.242 63.5855L133.215 61.8385C131.098 60.6582 128.702 60.08 126.056 60.08V62.08ZM132.242 63.5855C134.03 64.5821 135.434 65.9845 136.466 67.8116L138.207 66.8284C136.999 64.6875 135.331 63.0179 133.215 61.8385L132.242 63.5855ZM136.466 67.8116C137.487 69.6206 138.016 71.7811 138.016 74.328H140.016C140.016 71.4989 139.426 68.9874 138.207 66.8284L136.466 67.8116ZM138.016 74.328C138.016 74.5436 138.003 74.7976 137.973 75.0925L139.963 75.2915C139.998 74.9464 140.016 74.6244 140.016 74.328H138.016ZM137.968 75.192C137.968 75.4789 137.954 75.7458 137.926 75.9936L139.914 76.2144C139.951 75.8862 139.968 75.5451 139.968 75.192H137.968ZM138.92 75.104H117.56V77.104H138.92V75.104ZM118.56 76.104V72.12H116.56V76.104H118.56ZM117.56 73.12H135.752V71.12H117.56V73.12ZM135.284 71.2367L132.932 72.4846L133.869 74.2514L136.221 73.0033L135.284 71.2367ZM134.4 73.3897C134.436 71.7625 134.099 70.2826 133.357 68.9839L131.62 69.9761C132.158 70.9174 132.429 72.0295 132.401 73.3463L134.4 73.3897ZM133.357 68.9839C132.628 67.7088 131.62 66.7003 130.345 65.9718L129.352 67.7082C130.317 68.2597 131.069 69.0112 131.62 69.9761L133.357 68.9839ZM130.355 65.9781C129.093 65.2355 127.649 64.88 126.056 64.88V66.88C127.344 66.88 128.428 67.1645 129.341 67.7019L130.355 65.9781ZM126.056 64.88C124.435 64.88 122.964 65.2338 121.672 65.9718L122.665 67.7082C123.613 67.1662 124.733 66.88 126.056 66.88V64.88ZM121.661 65.9781C120.413 66.7126 119.425 67.7416 118.702 69.0424L120.451 70.0136C121.008 69.0104 121.748 68.2474 122.675 67.7019L121.661 65.9781ZM118.698 69.0509C117.995 70.3446 117.664 71.8434 117.664 73.512H119.664C119.664 72.1086 119.942 70.9514 120.455 70.0051L118.698 69.0509ZM117.664 73.512V74.472H119.664V73.512H117.664ZM117.664 74.472C117.664 76.1667 118.055 77.7072 118.861 79.0631L120.58 78.0409C119.978 77.0288 119.664 75.8493 119.664 74.472H117.664ZM118.861 79.0631C119.667 80.4183 120.805 81.4603 122.249 82.1824L123.144 80.3936C122.028 79.8357 121.182 79.0537 120.58 78.0409L118.861 79.0631ZM122.249 82.1824C123.689 82.9023 125.318 83.248 127.112 83.248V81.248C125.578 81.248 124.264 80.9537 123.144 80.3936L122.249 82.1824ZM127.112 83.248C128.656 83.248 130.078 83.0077 131.363 82.508L130.638 80.644C129.619 81.0403 128.449 81.248 127.112 81.248V83.248ZM131.363 82.508C132.664 82.0022 133.811 81.2092 134.803 80.1463L133.341 78.7817C132.541 79.6388 131.641 80.2538 130.638 80.644L131.363 82.508ZM133.318 80.1204L136.534 83.8164L138.043 82.5036L134.827 78.8076L133.318 80.1204ZM136.529 82.5092C135.486 83.7256 134.162 84.6769 132.535 85.3574L133.306 87.2026C135.199 86.4111 136.786 85.2824 138.048 83.8108L136.529 82.5092ZM132.543 85.3539C130.956 86.0004 129.104 86.336 126.968 86.336V88.336C129.312 88.336 131.428 87.9676 133.298 87.2061L132.543 85.3539ZM154.075 85.896L153.582 86.7663L153.589 86.7702L154.075 85.896ZM149.995 81.576L149.103 82.029L149.108 82.0379L149.113 82.0466L149.995 81.576ZM149.947 66.792L149.058 66.3329L149.052 66.3448L149.947 66.792ZM153.979 62.52L154.459 63.3973L154.465 63.3938L154.471 63.3903L153.979 62.52ZM166.459 62.712L165.966 63.582L165.972 63.5855L166.459 62.712ZM171.067 67.272L170.199 67.7697L170.206 67.7803L171.067 67.272ZM171.067 81.144L170.202 80.6419L170.2 80.6463L171.067 81.144ZM166.459 85.704L165.972 84.8305L165.966 84.834L166.459 85.704ZM145.579 96.312H144.579V97.312H145.579V96.312ZM145.579 61.368V60.368H144.579V61.368H145.579ZM151.291 61.368H152.291V60.368H151.291V61.368ZM151.291 67.416L152.29 67.4442L152.291 67.4301V67.416H151.291ZM151.099 74.232L150.099 74.2038L150.098 74.2531L150.101 74.3022L151.099 74.232ZM151.579 81.048H152.579V81.0128L152.576 80.9778L151.579 81.048ZM151.579 96.312V97.312H152.579V96.312H151.579ZM162.955 81.24L162.469 80.3658L162.459 80.3718L162.955 81.24ZM165.691 78.456L164.816 77.9723L165.691 78.456ZM165.691 69.912L164.816 70.3957L164.821 70.4056L165.691 69.912ZM162.955 67.128L162.459 67.9963L162.469 68.0022L162.955 67.128ZM155.227 67.128L154.741 66.2538L155.227 67.128ZM152.491 69.912L153.361 70.4056L153.366 70.3957L152.491 69.912ZM155.227 81.24L155.713 80.3658L155.227 81.24ZM159.787 86.336C157.868 86.336 156.132 85.895 154.561 85.0218L153.589 86.7702C155.474 87.817 157.546 88.336 159.787 88.336V86.336ZM154.567 85.0257C153.056 84.1699 151.823 82.878 150.877 81.1054L149.113 82.0466C150.215 84.114 151.702 85.7021 153.582 86.7663L154.567 85.0257ZM150.886 81.123C149.987 79.3525 149.507 77.0563 149.507 74.184H147.507C147.507 77.2637 148.019 79.8955 149.103 82.029L150.886 81.123ZM149.507 74.184C149.507 71.2727 149.973 68.9761 150.841 67.2392L149.052 66.3448C148.001 68.4479 147.507 71.0793 147.507 74.184H149.507ZM150.835 67.251C151.747 65.4864 152.958 64.2186 154.459 63.3973L153.499 61.6427C151.608 62.6774 150.131 64.2576 149.058 66.333L150.835 67.251ZM154.471 63.3903C156 62.5249 157.763 62.08 159.787 62.08V60.08C157.459 60.08 155.349 60.5951 153.486 61.6497L154.471 63.3903ZM159.787 62.08C162.168 62.08 164.217 62.591 165.966 63.582L166.952 61.842C164.861 60.657 162.462 60.08 159.787 60.08V62.08ZM165.972 63.5855C167.764 64.5844 169.169 65.974 170.2 67.7697L171.934 66.7743C170.725 64.666 169.058 63.0156 166.946 61.8385L165.972 63.5855ZM170.206 67.7803C171.252 69.5536 171.795 71.6757 171.795 74.184H173.795C173.795 71.3803 173.186 68.8944 171.928 66.7637L170.206 67.7803ZM171.795 74.184C171.795 76.6918 171.252 78.833 170.202 80.6419L171.932 81.6461C173.185 79.487 173.795 76.9882 173.795 74.184H171.795ZM170.2 80.6463C169.169 82.442 167.764 83.8316 165.972 84.8305L166.946 86.5775C169.058 85.4004 170.725 83.75 171.934 81.6417L170.2 80.6463ZM165.966 84.834C164.217 85.825 162.168 86.336 159.787 86.336V88.336C162.462 88.336 164.861 87.759 166.952 86.574L165.966 84.834ZM146.579 96.312V61.368H144.579V96.312H146.579ZM145.579 62.368H151.291V60.368H145.579V62.368ZM150.291 61.368V67.416H152.291V61.368H150.291ZM150.291 67.3878L150.099 74.2038L152.098 74.2602L152.29 67.4442L150.291 67.3878ZM150.101 74.3022L150.581 81.1182L152.576 80.9778L152.096 74.1618L150.101 74.3022ZM150.579 81.048V96.312H152.579V81.048H150.579ZM151.579 95.312H145.579V97.312H151.579V95.312ZM159.115 83.2C160.708 83.2 162.163 82.8443 163.451 82.1082L162.459 80.3718C161.507 80.9157 160.402 81.2 159.115 81.2V83.2ZM163.441 82.1142C164.765 81.3781 165.809 80.3105 166.566 78.9397L164.816 77.9723C164.229 79.0335 163.448 79.8219 162.469 80.3658L163.441 82.1142ZM166.566 78.9397C167.333 77.5516 167.699 75.9555 167.699 74.184H165.699C165.699 75.6765 165.393 76.9284 164.816 77.9723L166.566 78.9397ZM167.699 74.184C167.699 72.3852 167.335 70.783 166.561 69.4184L164.821 70.4056C165.391 71.409 165.699 72.6548 165.699 74.184H167.699ZM166.566 69.4283C165.809 68.0575 164.765 66.9899 163.441 66.2538L162.469 68.0022C163.448 68.5461 164.229 69.3345 164.816 70.3957L166.566 69.4283ZM163.451 66.2598C162.163 65.5237 160.708 65.168 159.115 65.168V67.168C160.402 67.168 161.507 67.4523 162.459 67.9962L163.451 66.2598ZM159.115 65.168C157.521 65.168 156.055 65.5238 154.741 66.2538L155.713 68.0022C156.702 67.4522 157.829 67.168 159.115 67.168V65.168ZM154.741 66.2538C153.416 66.9899 152.373 68.0575 151.616 69.4283L153.366 70.3957C153.953 69.3345 154.733 68.5461 155.713 68.0022L154.741 66.2538ZM151.621 69.4184C150.847 70.783 150.483 72.3852 150.483 74.184H152.483C152.483 72.6548 152.791 71.409 153.361 70.4056L151.621 69.4184ZM150.483 74.184C150.483 75.9555 150.849 77.5516 151.616 78.9397L153.366 77.9723C152.789 76.9284 152.483 75.6765 152.483 74.184H150.483ZM151.616 78.9397C152.373 80.3105 153.416 81.3781 154.741 82.1142L155.713 80.3658C154.733 79.8219 153.953 79.0335 153.366 77.9723L151.616 78.9397ZM154.741 82.1142C156.055 82.8442 157.521 83.2 159.115 83.2V81.2C157.829 81.2 156.702 80.9158 155.713 80.3658L154.741 82.1142ZM178.766 87H177.766V88H178.766V87ZM178.766 61.368V60.368H177.766V61.368H178.766ZM184.766 61.368H185.766V60.368H184.766V61.368ZM184.766 78.264H183.766V81.0141L185.533 78.9063L184.766 78.264ZM198.926 61.368V60.368H198.46L198.16 60.7257L198.926 61.368ZM204.398 61.368H205.398V60.368H204.398V61.368ZM204.398 87V88H205.398V87H204.398ZM198.398 87H197.398V88H198.398V87ZM198.398 70.104H199.398V67.3468L197.631 69.463L198.398 70.104ZM184.286 87V88H184.754L185.054 87.641L184.286 87ZM179.766 87V61.368H177.766V87H179.766ZM178.766 62.368H184.766V60.368H178.766V62.368ZM183.766 61.368V78.264H185.766V61.368H183.766ZM185.533 78.9063L199.693 62.0103L198.16 60.7257L184 77.6217L185.533 78.9063ZM198.926 62.368H204.398V60.368H198.926V62.368ZM203.398 61.368V87H205.398V61.368H203.398ZM204.398 86H198.398V88H204.398V86ZM199.398 87V70.104H197.398V87H199.398ZM197.631 69.463L183.519 86.359L185.054 87.641L199.166 70.745L197.631 69.463ZM184.286 86H178.766V88H184.286V86Z" fill="#281A08"/>
</svg>
