<svg width="263" height="25" viewBox="0 0 263 25" fill="none" xmlns="http://www.w3.org/2000/svg">
<path fill-rule="evenodd" clip-rule="evenodd" d="M0 10.3972C0 4.64736 4.74832 0 10.4919 0C16.2517 0 21 4.64736 21 10.3972C21 13.2946 19.9587 15.9845 18.2447 18.2645C16.3538 20.7794 14.0233 22.9706 11.4 24.6905C10.7996 25.088 10.2577 25.118 9.59879 24.6905C6.96056 22.9706 4.62999 20.7794 2.75532 18.2645C1.0401 15.9845 0 13.2946 0 10.3972ZM7.03405 10.721C7.03405 12.6472 8.58735 14.1621 10.4919 14.1621C12.3977 14.1621 13.966 12.6472 13.966 10.721C13.966 8.80977 12.3977 7.22106 10.4919 7.22106C8.58735 7.22106 7.03405 8.80977 7.03405 10.721Z" fill="#B79F84"/>
<path d="M38.68 19V8.32H43.9C45.1933 8.32 46.2067 8.56 46.94 9.04C47.6867 9.52 48.06 10.2 48.06 11.08C48.06 11.9467 47.7133 12.6267 47.02 13.12C46.3267 13.6 45.4067 13.84 44.26 13.84L44.56 13.22C45.8533 13.22 46.8133 13.46 47.44 13.94C48.08 14.4067 48.4 15.0933 48.4 16C48.4 16.9467 48.0467 17.6867 47.34 18.22C46.6333 18.74 45.56 19 44.12 19H38.68ZM41.06 17.18H43.92C44.6 17.18 45.1133 17.0733 45.46 16.86C45.8067 16.6333 45.98 16.2933 45.98 15.84C45.98 15.36 45.82 15.0067 45.5 14.78C45.18 14.5533 44.68 14.44 44 14.44H41.06V17.18ZM41.06 12.78H43.68C44.32 12.78 44.8 12.6667 45.12 12.44C45.4533 12.2 45.62 11.8667 45.62 11.44C45.62 11 45.4533 10.6733 45.12 10.46C44.8 10.2467 44.32 10.14 43.68 10.14H41.06V12.78ZM52.0228 23.02C51.5028 23.02 50.9828 22.9333 50.4628 22.76C49.9428 22.5867 49.5095 22.3467 49.1628 22.04L50.1628 20.2C50.4161 20.4267 50.7028 20.6067 51.0228 20.74C51.3428 20.8733 51.6695 20.94 52.0028 20.94C52.4561 20.94 52.8228 20.8267 53.1028 20.6C53.3828 20.3733 53.6428 19.9933 53.8828 19.46L54.5028 18.06L54.7028 17.76L58.7428 8.32H61.1428L56.1428 19.86C55.8095 20.66 55.4361 21.2933 55.0228 21.76C54.6228 22.2267 54.1695 22.5533 53.6628 22.74C53.1695 22.9267 52.6228 23.02 52.0228 23.02ZM54.2228 19.38L49.4028 8.32H52.0028L55.9228 17.54L54.2228 19.38ZM60.6747 18.98L60.7947 16.88C60.888 16.8933 60.9747 16.9067 61.0547 16.92C61.1347 16.9333 61.208 16.94 61.2747 16.94C61.688 16.94 62.008 16.8133 62.2347 16.56C62.4614 16.3067 62.628 15.9667 62.7347 15.54C62.8547 15.1 62.9347 14.6133 62.9747 14.08C63.028 13.5333 63.068 12.9867 63.0947 12.44L63.2747 8.32H71.9147V19H69.4147V9.76L69.9947 10.44H64.9147L65.4547 9.74L65.3147 12.56C65.2747 13.5067 65.1947 14.3867 65.0747 15.2C64.968 16 64.7947 16.7 64.5547 17.3C64.328 17.9 64.008 18.3667 63.5947 18.7C63.1947 19.0333 62.6814 19.2 62.0547 19.2C61.8547 19.2 61.6347 19.18 61.3947 19.14C61.168 19.1 60.928 19.0467 60.6747 18.98ZM76.0416 19.14C75.5882 19.14 75.2016 18.9867 74.8816 18.68C74.5616 18.36 74.4016 17.96 74.4016 17.48C74.4016 16.9733 74.5616 16.5733 74.8816 16.28C75.2016 15.9733 75.5882 15.82 76.0416 15.82C76.4949 15.82 76.8816 15.9733 77.2016 16.28C77.5216 16.5733 77.6816 16.9733 77.6816 17.48C77.6816 17.96 77.5216 18.36 77.2016 18.68C76.8816 18.9867 76.4949 19.14 76.0416 19.14ZM88.9117 19V6.56L89.5317 7.2H84.2917V5H96.1317V7.2H90.8917L91.4917 6.56V19H88.9117ZM103.76 19.14C102.893 19.14 102.1 18.94 101.38 18.54C100.673 18.14 100.107 17.54 99.6802 16.74C99.2668 15.9267 99.0602 14.9 99.0602 13.66C99.0602 12.4067 99.2602 11.38 99.6602 10.58C100.073 9.78 100.633 9.18667 101.34 8.8C102.047 8.4 102.853 8.2 103.76 8.2C104.813 8.2 105.74 8.42667 106.54 8.88C107.353 9.33333 107.993 9.96667 108.46 10.78C108.94 11.5933 109.18 12.5533 109.18 13.66C109.18 14.7667 108.94 15.7333 108.46 16.56C107.993 17.3733 107.353 18.0067 106.54 18.46C105.74 18.9133 104.813 19.14 103.76 19.14ZM97.8402 22.88V8.32H100.22V10.84L100.14 13.68L100.34 16.52V22.88H97.8402ZM103.48 17C104.08 17 104.613 16.8667 105.08 16.6C105.56 16.3333 105.94 15.9467 106.22 15.44C106.5 14.9333 106.64 14.34 106.64 13.66C106.64 12.9667 106.5 12.3733 106.22 11.88C105.94 11.3733 105.56 10.9867 105.08 10.72C104.613 10.4533 104.08 10.32 103.48 10.32C102.88 10.32 102.34 10.4533 101.86 10.72C101.38 10.9867 101 11.3733 100.72 11.88C100.44 12.3733 100.3 12.9667 100.3 13.66C100.3 14.34 100.44 14.9333 100.72 15.44C101 15.9467 101.38 16.3333 101.86 16.6C102.34 16.8667 102.88 17 103.48 17ZM112.335 23.02C111.815 23.02 111.295 22.9333 110.775 22.76C110.255 22.5867 109.822 22.3467 109.475 22.04L110.475 20.2C110.729 20.4267 111.015 20.6067 111.335 20.74C111.655 20.8733 111.982 20.94 112.315 20.94C112.769 20.94 113.135 20.8267 113.415 20.6C113.695 20.3733 113.955 19.9933 114.195 19.46L114.815 18.06L115.015 17.76L119.055 8.32H121.455L116.455 19.86C116.122 20.66 115.749 21.2933 115.335 21.76C114.935 22.2267 114.482 22.5533 113.975 22.74C113.482 22.9267 112.935 23.02 112.335 23.02ZM114.535 19.38L109.715 8.32H112.315L116.235 17.54L114.535 19.38ZM127.759 19.14C126.639 19.14 125.639 18.9067 124.759 18.44C123.892 17.96 123.212 17.3067 122.719 16.48C122.225 15.6533 121.979 14.7133 121.979 13.66C121.979 12.5933 122.225 11.6533 122.719 10.84C123.212 10.0133 123.892 9.36667 124.759 8.9C125.639 8.43333 126.639 8.2 127.759 8.2C128.799 8.2 129.712 8.41333 130.499 8.84C131.299 9.25333 131.905 9.86667 132.319 10.68L130.399 11.8C130.079 11.2933 129.685 10.92 129.219 10.68C128.765 10.44 128.272 10.32 127.739 10.32C127.125 10.32 126.572 10.4533 126.079 10.72C125.585 10.9867 125.199 11.3733 124.919 11.88C124.639 12.3733 124.499 12.9667 124.499 13.66C124.499 14.3533 124.639 14.9533 124.919 15.46C125.199 15.9533 125.585 16.3333 126.079 16.6C126.572 16.8667 127.125 17 127.739 17C128.272 17 128.765 16.88 129.219 16.64C129.685 16.4 130.079 16.0267 130.399 15.52L132.319 16.64C131.905 17.44 131.299 18.06 130.499 18.5C129.712 18.9267 128.799 19.14 127.759 19.14ZM142.18 19L138.32 13.88L140.36 12.62L145.12 19H142.18ZM134.52 19V8.32H137.02V19H134.52ZM136.28 14.72V12.64H139.9V14.72H136.28ZM140.6 13.96L138.26 13.68L142.18 8.32H144.86L140.6 13.96ZM153.168 19V16.84L153.028 16.38V12.6C153.028 11.8667 152.808 11.3 152.368 10.9C151.928 10.4867 151.261 10.28 150.368 10.28C149.768 10.28 149.174 10.3733 148.588 10.56C148.014 10.7467 147.528 11.0067 147.128 11.34L146.148 9.52C146.721 9.08 147.401 8.75333 148.188 8.54C148.988 8.31333 149.814 8.2 150.668 8.2C152.214 8.2 153.408 8.57333 154.248 9.32C155.101 10.0533 155.528 11.1933 155.528 12.74V19H153.168ZM149.808 19.14C149.008 19.14 148.308 19.0067 147.708 18.74C147.108 18.46 146.641 18.08 146.308 17.6C145.988 17.1067 145.828 16.5533 145.828 15.94C145.828 15.34 145.968 14.8 146.248 14.32C146.541 13.84 147.014 13.46 147.668 13.18C148.321 12.9 149.188 12.76 150.268 12.76H153.368V14.42H150.448C149.594 14.42 149.021 14.56 148.728 14.84C148.434 15.1067 148.288 15.44 148.288 15.84C148.288 16.2933 148.468 16.6533 148.828 16.92C149.188 17.1867 149.688 17.32 150.328 17.32C150.941 17.32 151.488 17.18 151.968 16.9C152.461 16.62 152.814 16.2067 153.028 15.66L153.448 17.16C153.208 17.7867 152.774 18.2733 152.148 18.62C151.534 18.9667 150.754 19.14 149.808 19.14ZM158.621 19V8.32H163.841C165.135 8.32 166.148 8.56 166.881 9.04C167.628 9.52 168.001 10.2 168.001 11.08C168.001 11.9467 167.655 12.6267 166.961 13.12C166.268 13.6 165.348 13.84 164.201 13.84L164.501 13.22C165.795 13.22 166.755 13.46 167.381 13.94C168.021 14.4067 168.341 15.0933 168.341 16C168.341 16.9467 167.988 17.6867 167.281 18.22C166.575 18.74 165.501 19 164.061 19H158.621ZM161.001 17.18H163.861C164.541 17.18 165.055 17.0733 165.401 16.86C165.748 16.6333 165.921 16.2933 165.921 15.84C165.921 15.36 165.761 15.0067 165.441 14.78C165.121 14.5533 164.621 14.44 163.941 14.44H161.001V17.18ZM161.001 12.78H163.621C164.261 12.78 164.741 12.6667 165.061 12.44C165.395 12.2 165.561 11.8667 165.561 11.44C165.561 11 165.395 10.6733 165.061 10.46C164.741 10.2467 164.261 10.14 163.621 10.14H161.001V12.78ZM175.984 19.14C174.798 19.14 173.758 18.9067 172.864 18.44C171.984 17.96 171.298 17.3067 170.804 16.48C170.324 15.6533 170.084 14.7133 170.084 13.66C170.084 12.5933 170.318 11.6533 170.784 10.84C171.264 10.0133 171.918 9.36667 172.744 8.9C173.584 8.43333 174.538 8.2 175.604 8.2C176.644 8.2 177.571 8.42667 178.384 8.88C179.198 9.33333 179.838 9.97333 180.304 10.8C180.771 11.6267 181.004 12.6 181.004 13.72C181.004 13.8267 180.998 13.9467 180.984 14.08C180.984 14.2133 180.978 14.34 180.964 14.46H172.064V12.8H179.644L178.664 13.32C178.678 12.7067 178.551 12.1667 178.284 11.7C178.018 11.2333 177.651 10.8667 177.184 10.6C176.731 10.3333 176.204 10.2 175.604 10.2C174.991 10.2 174.451 10.3333 173.984 10.6C173.531 10.8667 173.171 11.24 172.904 11.72C172.651 12.1867 172.524 12.74 172.524 13.38V13.78C172.524 14.42 172.671 14.9867 172.964 15.48C173.258 15.9733 173.671 16.3533 174.204 16.62C174.738 16.8867 175.351 17.02 176.044 17.02C176.644 17.02 177.184 16.9267 177.664 16.74C178.144 16.5533 178.571 16.26 178.944 15.86L180.284 17.4C179.804 17.96 179.198 18.3933 178.464 18.7C177.744 18.9933 176.918 19.14 175.984 19.14ZM183.739 19V8.32H186.239V16.88H191.339V8.32H193.839V19H183.739ZM193.119 21.38V18.94L193.699 19H191.339V16.88H195.459V21.38H193.119ZM203.044 11.84C204.417 11.84 205.464 12.1467 206.184 12.76C206.904 13.3733 207.264 14.24 207.264 15.36C207.264 16.52 206.864 17.4267 206.064 18.08C205.264 18.72 204.137 19.0333 202.684 19.02L197.684 19V8.32H200.184V11.82L203.044 11.84ZM202.464 17.18C203.197 17.1933 203.757 17.04 204.144 16.72C204.531 16.4 204.724 15.9333 204.724 15.32C204.724 14.7067 204.531 14.2667 204.144 14C203.771 13.72 203.211 13.5733 202.464 13.56L200.184 13.54V17.16L202.464 17.18ZM217.121 19L213.261 13.88L215.301 12.62L220.061 19H217.121ZM209.461 19V8.32H211.961V19H209.461ZM211.221 14.72V12.64H214.841V14.72H211.221ZM215.541 13.96L213.201 13.68L217.121 8.32H219.801L215.541 13.96ZM228.109 19V16.84L227.969 16.38V12.6C227.969 11.8667 227.749 11.3 227.309 10.9C226.869 10.4867 226.203 10.28 225.309 10.28C224.709 10.28 224.116 10.3733 223.529 10.56C222.956 10.7467 222.469 11.0067 222.069 11.34L221.089 9.52C221.663 9.08 222.343 8.75333 223.129 8.54C223.929 8.31333 224.756 8.2 225.609 8.2C227.156 8.2 228.349 8.57333 229.189 9.32C230.043 10.0533 230.469 11.1933 230.469 12.74V19H228.109ZM224.749 19.14C223.949 19.14 223.249 19.0067 222.649 18.74C222.049 18.46 221.583 18.08 221.249 17.6C220.929 17.1067 220.769 16.5533 220.769 15.94C220.769 15.34 220.909 14.8 221.189 14.32C221.483 13.84 221.956 13.46 222.609 13.18C223.263 12.9 224.129 12.76 225.209 12.76H228.309V14.42H225.389C224.536 14.42 223.963 14.56 223.669 14.84C223.376 15.1067 223.229 15.44 223.229 15.84C223.229 16.2933 223.409 16.6533 223.769 16.92C224.129 17.1867 224.629 17.32 225.269 17.32C225.883 17.32 226.429 17.18 226.909 16.9C227.403 16.62 227.756 16.2067 227.969 15.66L228.389 17.16C228.149 17.7867 227.716 18.2733 227.089 18.62C226.476 18.9667 225.696 19.14 224.749 19.14ZM242.93 19.2C241.943 19.2 240.977 19.06 240.03 18.78C239.097 18.4867 238.31 18.0867 237.67 17.58L238.77 15.56C239.277 15.9733 239.89 16.3067 240.61 16.56C241.343 16.8133 242.103 16.94 242.89 16.94C243.81 16.94 244.53 16.7467 245.05 16.36C245.583 15.9733 245.85 15.4533 245.85 14.8C245.85 14.36 245.737 13.9733 245.51 13.64C245.297 13.3067 244.91 13.0533 244.35 12.88C243.803 12.7067 243.05 12.62 242.09 12.62H238.71L239.43 5H247.65V7.18H240.39L241.75 5.94L241.21 11.64L239.85 10.42H242.67C244.057 10.42 245.17 10.6067 246.01 10.98C246.863 11.34 247.483 11.8467 247.87 12.5C248.27 13.14 248.47 13.8733 248.47 14.7C248.47 15.5133 248.27 16.26 247.87 16.94C247.47 17.62 246.857 18.1667 246.03 18.58C245.217 18.9933 244.183 19.2 242.93 19.2ZM255.81 19.2C254.703 19.2 253.703 18.92 252.81 18.36C251.93 17.8 251.237 16.9867 250.73 15.92C250.223 14.84 249.97 13.5333 249.97 12C249.97 10.4667 250.223 9.16667 250.73 8.1C251.237 7.02 251.93 6.2 252.81 5.64C253.703 5.08 254.703 4.8 255.81 4.8C256.93 4.8 257.93 5.08 258.81 5.64C259.69 6.2 260.383 7.02 260.89 8.1C261.41 9.16667 261.67 10.4667 261.67 12C261.67 13.5333 261.41 14.84 260.89 15.92C260.383 16.9867 259.69 17.8 258.81 18.36C257.93 18.92 256.93 19.2 255.81 19.2ZM255.81 16.94C256.463 16.94 257.03 16.7667 257.51 16.42C257.99 16.06 258.363 15.5133 258.63 14.78C258.91 14.0467 259.05 13.12 259.05 12C259.05 10.8667 258.91 9.94 258.63 9.22C258.363 8.48667 257.99 7.94667 257.51 7.6C257.03 7.24 256.463 7.06 255.81 7.06C255.183 7.06 254.623 7.24 254.13 7.6C253.65 7.94667 253.27 8.48667 252.99 9.22C252.723 9.94 252.59 10.8667 252.59 12C252.59 13.12 252.723 14.0467 252.99 14.78C253.27 15.5133 253.65 16.06 254.13 16.42C254.623 16.7667 255.183 16.94 255.81 16.94Z" fill="white"/>
</svg>
