<svg width="280" height="24" viewBox="0 0 280 24" fill="none" xmlns="http://www.w3.org/2000/svg">
<path fill-rule="evenodd" clip-rule="evenodd" d="M18.6737 0.75C20.35 0.75 21.9625 1.4125 23.1487 2.60125C24.3362 3.7875 25 5.3875 25 7.0625V16.9375C25 20.425 22.1625 23.25 18.6737 23.25H6.325C2.83625 23.25 0 20.425 0 16.9375V7.0625C0 3.575 2.82375 0.75 6.325 0.75H18.6737ZM20.6625 8.92503L20.7625 8.82503C21.0613 8.46253 21.0613 7.93753 20.7488 7.57503C20.575 7.38878 20.3363 7.27503 20.0875 7.25003C19.825 7.23628 19.575 7.32503 19.3863 7.50003L13.75 12C13.025 12.6013 11.9863 12.6013 11.25 12L5.62501 7.50003C5.23626 7.21253 4.69876 7.25003 4.37501 7.58753C4.03751 7.92503 4.00001 8.46253 4.28626 8.83753L4.45001 9.00003L10.1375 13.4375C10.8375 13.9875 11.6863 14.2875 12.575 14.2875C13.4613 14.2875 14.325 13.9875 15.0238 13.4375L20.6625 8.92503Z" fill="#B79F84"/>
<path d="M40.64 19V8.32H43.02V11.26L42.74 10.4C43.06 9.68 43.56 9.13333 44.24 8.76C44.9333 8.38667 45.7933 8.2 46.82 8.2V10.58C46.7133 10.5533 46.6133 10.54 46.52 10.54C46.4267 10.5267 46.3333 10.52 46.24 10.52C45.2933 10.52 44.54 10.8 43.98 11.36C43.42 11.9067 43.14 12.7267 43.14 13.82V19H40.64ZM53.8631 19.14C52.6765 19.14 51.6365 18.9067 50.7431 18.44C49.8631 17.96 49.1765 17.3067 48.6831 16.48C48.2031 15.6533 47.9631 14.7133 47.9631 13.66C47.9631 12.5933 48.1965 11.6533 48.6631 10.84C49.1431 10.0133 49.7965 9.36667 50.6231 8.9C51.4631 8.43333 52.4165 8.2 53.4831 8.2C54.5231 8.2 55.4498 8.42667 56.2631 8.88C57.0765 9.33333 57.7165 9.97333 58.1831 10.8C58.6498 11.6267 58.8831 12.6 58.8831 13.72C58.8831 13.8267 58.8765 13.9467 58.8631 14.08C58.8631 14.2133 58.8565 14.34 58.8431 14.46H49.9431V12.8H57.5231L56.5431 13.32C56.5565 12.7067 56.4298 12.1667 56.1631 11.7C55.8965 11.2333 55.5298 10.8667 55.0631 10.6C54.6098 10.3333 54.0831 10.2 53.4831 10.2C52.8698 10.2 52.3298 10.3333 51.8631 10.6C51.4098 10.8667 51.0498 11.24 50.7831 11.72C50.5298 12.1867 50.4031 12.74 50.4031 13.38V13.78C50.4031 14.42 50.5498 14.9867 50.8431 15.48C51.1365 15.9733 51.5498 16.3533 52.0831 16.62C52.6165 16.8867 53.2298 17.02 53.9231 17.02C54.5231 17.02 55.0631 16.9267 55.5431 16.74C56.0231 16.5533 56.4498 16.26 56.8231 15.86L58.1631 17.4C57.6831 17.96 57.0765 18.3933 56.3431 18.7C55.6231 18.9933 54.7965 19.14 53.8631 19.14ZM61.6245 19V7.72C61.6245 6.6 61.9512 5.70667 62.6045 5.04C63.2712 4.36 64.2179 4.02 65.4445 4.02C65.8845 4.02 66.2979 4.06667 66.6845 4.16C67.0845 4.25333 67.4179 4.4 67.6845 4.6L67.0045 6.48C66.8179 6.33333 66.6045 6.22667 66.3645 6.16C66.1245 6.08 65.8779 6.04 65.6245 6.04C65.1045 6.04 64.7112 6.18667 64.4445 6.48C64.1779 6.76 64.0445 7.18667 64.0445 7.76V8.96L64.1245 10.08V19H61.6245ZM59.8645 10.4V8.4H66.9845V10.4H59.8645ZM75.052 19V16.84L74.912 16.38V12.6C74.912 11.8667 74.692 11.3 74.252 10.9C73.812 10.4867 73.1454 10.28 72.252 10.28C71.652 10.28 71.0587 10.3733 70.472 10.56C69.8987 10.7467 69.412 11.0067 69.012 11.34L68.032 9.52C68.6054 9.08 69.2854 8.75333 70.072 8.54C70.872 8.31333 71.6987 8.2 72.552 8.2C74.0987 8.2 75.292 8.57333 76.132 9.32C76.9854 10.0533 77.412 11.1933 77.412 12.74V19H75.052ZM71.692 19.14C70.892 19.14 70.192 19.0067 69.592 18.74C68.992 18.46 68.5254 18.08 68.192 17.6C67.872 17.1067 67.712 16.5533 67.712 15.94C67.712 15.34 67.852 14.8 68.132 14.32C68.4254 13.84 68.8987 13.46 69.552 13.18C70.2054 12.9 71.072 12.76 72.152 12.76H75.252V14.42H72.332C71.4787 14.42 70.9054 14.56 70.612 14.84C70.3187 15.1067 70.172 15.44 70.172 15.84C70.172 16.2933 70.352 16.6533 70.712 16.92C71.072 17.1867 71.572 17.32 72.212 17.32C72.8254 17.32 73.372 17.18 73.852 16.9C74.3454 16.62 74.6987 16.2067 74.912 15.66L75.332 17.16C75.092 17.7867 74.6587 18.2733 74.032 18.62C73.4187 18.9667 72.6387 19.14 71.692 19.14ZM85.66 19.14C84.4733 19.14 83.4333 18.9067 82.54 18.44C81.66 17.96 80.9733 17.3067 80.48 16.48C80 15.6533 79.76 14.7133 79.76 13.66C79.76 12.5933 79.9933 11.6533 80.46 10.84C80.94 10.0133 81.5933 9.36667 82.42 8.9C83.26 8.43333 84.2133 8.2 85.28 8.2C86.32 8.2 87.2467 8.42667 88.06 8.88C88.8733 9.33333 89.5133 9.97333 89.98 10.8C90.4467 11.6267 90.68 12.6 90.68 13.72C90.68 13.8267 90.6733 13.9467 90.66 14.08C90.66 14.2133 90.6533 14.34 90.64 14.46H81.74V12.8H89.32L88.34 13.32C88.3533 12.7067 88.2267 12.1667 87.96 11.7C87.6933 11.2333 87.3267 10.8667 86.86 10.6C86.4067 10.3333 85.88 10.2 85.28 10.2C84.6667 10.2 84.1267 10.3333 83.66 10.6C83.2067 10.8667 82.8467 11.24 82.58 11.72C82.3267 12.1867 82.2 12.74 82.2 13.38V13.78C82.2 14.42 82.3467 14.9867 82.64 15.48C82.9333 15.9733 83.3467 16.3533 83.88 16.62C84.4133 16.8867 85.0267 17.02 85.72 17.02C86.32 17.02 86.86 16.9267 87.34 16.74C87.82 16.5533 88.2467 16.26 88.62 15.86L89.96 17.4C89.48 17.96 88.8733 18.3933 88.14 18.7C87.42 18.9933 86.5933 19.14 85.66 19.14ZM93.0814 19V4.16H95.5814V19H93.0814ZM104.923 8.2C105.776 8.2 106.536 8.36667 107.203 8.7C107.883 9.03333 108.416 9.54667 108.803 10.24C109.189 10.92 109.383 11.8 109.383 12.88V19H106.883V13.2C106.883 12.2533 106.656 11.5467 106.203 11.08C105.763 10.6133 105.143 10.38 104.343 10.38C103.756 10.38 103.236 10.5 102.783 10.74C102.329 10.98 101.976 11.34 101.723 11.82C101.483 12.2867 101.363 12.88 101.363 13.6V19H98.8627V4.16H101.363V11.2L100.823 10.32C101.196 9.64 101.736 9.12 102.443 8.76C103.163 8.38667 103.989 8.2 104.923 8.2ZM117.374 19.14C116.28 19.14 115.307 18.9067 114.454 18.44C113.6 17.96 112.927 17.3067 112.434 16.48C111.94 15.6533 111.694 14.7133 111.694 13.66C111.694 12.5933 111.94 11.6533 112.434 10.84C112.927 10.0133 113.6 9.36667 114.454 8.9C115.307 8.43333 116.28 8.2 117.374 8.2C118.48 8.2 119.46 8.43333 120.314 8.9C121.18 9.36667 121.854 10.0067 122.334 10.82C122.827 11.6333 123.074 12.58 123.074 13.66C123.074 14.7133 122.827 15.6533 122.334 16.48C121.854 17.3067 121.18 17.96 120.314 18.44C119.46 18.9067 118.48 19.14 117.374 19.14ZM117.374 17C117.987 17 118.534 16.8667 119.014 16.6C119.494 16.3333 119.867 15.9467 120.134 15.44C120.414 14.9333 120.554 14.34 120.554 13.66C120.554 12.9667 120.414 12.3733 120.134 11.88C119.867 11.3733 119.494 10.9867 119.014 10.72C118.534 10.4533 117.994 10.32 117.394 10.32C116.78 10.32 116.234 10.4533 115.754 10.72C115.287 10.9867 114.914 11.3733 114.634 11.88C114.354 12.3733 114.214 12.9667 114.214 13.66C114.214 14.34 114.354 14.9333 114.634 15.44C114.914 15.9467 115.287 16.3333 115.754 16.6C116.234 16.8667 116.774 17 117.374 17ZM129.484 19.14C128.311 19.14 127.404 18.84 126.764 18.24C126.124 17.6267 125.804 16.7267 125.804 15.54V5.96H128.304V15.48C128.304 15.9867 128.431 16.38 128.684 16.66C128.951 16.94 129.318 17.08 129.784 17.08C130.344 17.08 130.811 16.9333 131.184 16.64L131.884 18.42C131.591 18.66 131.231 18.84 130.804 18.96C130.378 19.08 129.938 19.14 129.484 19.14ZM124.044 10.4V8.4H131.164V10.4H124.044ZM138.609 19.14C137.423 19.14 136.383 18.9067 135.489 18.44C134.609 17.96 133.923 17.3067 133.429 16.48C132.949 15.6533 132.709 14.7133 132.709 13.66C132.709 12.5933 132.943 11.6533 133.409 10.84C133.889 10.0133 134.543 9.36667 135.369 8.9C136.209 8.43333 137.163 8.2 138.229 8.2C139.269 8.2 140.196 8.42667 141.009 8.88C141.823 9.33333 142.463 9.97333 142.929 10.8C143.396 11.6267 143.629 12.6 143.629 13.72C143.629 13.8267 143.623 13.9467 143.609 14.08C143.609 14.2133 143.603 14.34 143.589 14.46H134.689V12.8H142.269L141.289 13.32C141.303 12.7067 141.176 12.1667 140.909 11.7C140.643 11.2333 140.276 10.8667 139.809 10.6C139.356 10.3333 138.829 10.2 138.229 10.2C137.616 10.2 137.076 10.3333 136.609 10.6C136.156 10.8667 135.796 11.24 135.529 11.72C135.276 12.1867 135.149 12.74 135.149 13.38V13.78C135.149 14.42 135.296 14.9867 135.589 15.48C135.883 15.9733 136.296 16.3533 136.829 16.62C137.363 16.8867 137.976 17.02 138.669 17.02C139.269 17.02 139.809 16.9267 140.289 16.74C140.769 16.5533 141.196 16.26 141.569 15.86L142.909 17.4C142.429 17.96 141.823 18.3933 141.089 18.7C140.369 18.9933 139.543 19.14 138.609 19.14ZM146.031 19V4.16H148.531V19H146.031ZM160.532 23.08C159.119 23.08 157.832 22.8533 156.672 22.4C155.512 21.9467 154.512 21.3067 153.672 20.48C152.832 19.6533 152.185 18.6867 151.732 17.58C151.279 16.46 151.052 15.24 151.052 13.92C151.052 12.6 151.279 11.3867 151.732 10.28C152.185 9.17333 152.832 8.21333 153.672 7.4C154.525 6.58667 155.539 5.95333 156.712 5.5C157.885 5.04667 159.185 4.82 160.612 4.82C161.985 4.82 163.245 5.04 164.392 5.48C165.539 5.90667 166.525 6.51333 167.352 7.3C168.192 8.07333 168.839 8.99333 169.292 10.06C169.759 11.1267 169.992 12.3 169.992 13.58C169.992 14.7267 169.839 15.72 169.532 16.56C169.225 17.3867 168.785 18.02 168.212 18.46C167.652 18.9 166.965 19.12 166.152 19.12C165.325 19.12 164.665 18.8733 164.172 18.38C163.692 17.8867 163.452 17.1733 163.452 16.24V15.1L163.532 13.96L163.352 11.36V9.08H165.572V15.88C165.572 16.3867 165.672 16.7467 165.872 16.96C166.085 17.16 166.332 17.26 166.612 17.26C166.972 17.26 167.279 17.12 167.532 16.84C167.785 16.56 167.972 16.1467 168.092 15.6C168.225 15.0533 168.292 14.3933 168.292 13.62C168.292 12.5533 168.105 11.58 167.732 10.7C167.372 9.82 166.845 9.06667 166.152 8.44C165.472 7.8 164.659 7.31333 163.712 6.98C162.779 6.63333 161.745 6.46 160.612 6.46C159.452 6.46 158.399 6.64667 157.452 7.02C156.505 7.38 155.692 7.89333 155.012 8.56C154.332 9.22667 153.805 10.02 153.432 10.94C153.072 11.8467 152.892 12.84 152.892 13.92C152.892 15.0267 153.072 16.04 153.432 16.96C153.792 17.88 154.305 18.6667 154.972 19.32C155.652 19.9867 156.459 20.5 157.392 20.86C158.325 21.2333 159.372 21.42 160.532 21.42C161.145 21.42 161.792 21.3467 162.472 21.2C163.152 21.0667 163.799 20.8467 164.412 20.54L164.952 22.14C164.339 22.4467 163.632 22.68 162.832 22.84C162.032 23 161.265 23.08 160.532 23.08ZM160.012 19.12C159.092 19.12 158.272 18.9067 157.552 18.48C156.832 18.04 156.259 17.44 155.832 16.68C155.419 15.9067 155.212 15.02 155.212 14.02C155.212 13.0333 155.419 12.16 155.832 11.4C156.245 10.6267 156.812 10.0267 157.532 9.6C158.265 9.17333 159.092 8.96 160.012 8.96C160.905 8.96 161.685 9.16 162.352 9.56C163.019 9.94667 163.539 10.5133 163.912 11.26C164.285 12.0067 164.472 12.9267 164.472 14.02C164.472 15.1133 164.292 16.04 163.932 16.8C163.572 17.56 163.059 18.14 162.392 18.54C161.725 18.9267 160.932 19.12 160.012 19.12ZM160.432 17.18C161.005 17.18 161.512 17.06 161.952 16.82C162.392 16.5667 162.739 16.2 162.992 15.72C163.259 15.24 163.392 14.6733 163.392 14.02C163.392 13.3533 163.259 12.7933 162.992 12.34C162.739 11.8733 162.392 11.52 161.952 11.28C161.512 11.0267 161.005 10.9 160.432 10.9C159.845 10.9 159.325 11.0267 158.872 11.28C158.432 11.5333 158.085 11.8933 157.832 12.36C157.592 12.8267 157.472 13.38 157.472 14.02C157.472 14.6733 157.592 15.2333 157.832 15.7C158.085 16.1667 158.432 16.5333 158.872 16.8C159.325 17.0533 159.845 17.18 160.432 17.18ZM177.335 23.02C176.349 23.02 175.382 22.8867 174.435 22.62C173.502 22.3667 172.735 21.9933 172.135 21.5L173.255 19.62C173.722 20.0067 174.309 20.3133 175.015 20.54C175.735 20.78 176.462 20.9 177.195 20.9C178.369 20.9 179.229 20.6267 179.775 20.08C180.322 19.5467 180.595 18.74 180.595 17.66V15.76L180.795 13.34L180.715 10.92V8.32H183.095V17.38C183.095 19.3133 182.602 20.7333 181.615 21.64C180.629 22.56 179.202 23.02 177.335 23.02ZM177.015 18.52C176.002 18.52 175.082 18.3067 174.255 17.88C173.442 17.44 172.795 16.8333 172.315 16.06C171.849 15.2867 171.615 14.38 171.615 13.34C171.615 12.3133 171.849 11.4133 172.315 10.64C172.795 9.86667 173.442 9.26667 174.255 8.84C175.082 8.41333 176.002 8.2 177.015 8.2C177.922 8.2 178.735 8.38 179.455 8.74C180.175 9.1 180.749 9.66 181.175 10.42C181.615 11.18 181.835 12.1533 181.835 13.34C181.835 14.5267 181.615 15.5067 181.175 16.28C180.749 17.04 180.175 17.6067 179.455 17.98C178.735 18.34 177.922 18.52 177.015 18.52ZM177.395 16.4C178.022 16.4 178.582 16.2733 179.075 16.02C179.569 15.7533 179.949 15.3933 180.215 14.94C180.495 14.4733 180.635 13.94 180.635 13.34C180.635 12.74 180.495 12.2133 180.215 11.76C179.949 11.2933 179.569 10.94 179.075 10.7C178.582 10.4467 178.022 10.32 177.395 10.32C176.769 10.32 176.202 10.4467 175.695 10.7C175.202 10.94 174.815 11.2933 174.535 11.76C174.269 12.2133 174.135 12.74 174.135 13.34C174.135 13.94 174.269 14.4733 174.535 14.94C174.815 15.3933 175.202 15.7533 175.695 16.02C176.202 16.2733 176.769 16.4 177.395 16.4ZM199.862 8.2C200.716 8.2 201.469 8.36667 202.122 8.7C202.789 9.03333 203.309 9.54667 203.682 10.24C204.056 10.92 204.242 11.8 204.242 12.88V19H201.742V13.2C201.742 12.2533 201.536 11.5467 201.122 11.08C200.709 10.6133 200.116 10.38 199.342 10.38C198.796 10.38 198.309 10.5 197.882 10.74C197.469 10.98 197.142 11.3333 196.902 11.8C196.676 12.2667 196.562 12.86 196.562 13.58V19H194.062V13.2C194.062 12.2533 193.856 11.5467 193.442 11.08C193.029 10.6133 192.436 10.38 191.662 10.38C191.116 10.38 190.629 10.5 190.202 10.74C189.789 10.98 189.462 11.3333 189.222 11.8C188.996 12.2667 188.882 12.86 188.882 13.58V19H186.382V8.32H188.762V11.16L188.342 10.32C188.702 9.62667 189.222 9.1 189.902 8.74C190.596 8.38 191.382 8.2 192.262 8.2C193.262 8.2 194.129 8.44667 194.862 8.94C195.609 9.43333 196.102 10.18 196.342 11.18L195.362 10.84C195.709 10.04 196.282 9.4 197.082 8.92C197.882 8.44 198.809 8.2 199.862 8.2ZM214.017 19V16.84L213.877 16.38V12.6C213.877 11.8667 213.657 11.3 213.217 10.9C212.777 10.4867 212.11 10.28 211.217 10.28C210.617 10.28 210.024 10.3733 209.437 10.56C208.864 10.7467 208.377 11.0067 207.977 11.34L206.997 9.52C207.57 9.08 208.25 8.75333 209.037 8.54C209.837 8.31333 210.664 8.2 211.517 8.2C213.064 8.2 214.257 8.57333 215.097 9.32C215.95 10.0533 216.377 11.1933 216.377 12.74V19H214.017ZM210.657 19.14C209.857 19.14 209.157 19.0067 208.557 18.74C207.957 18.46 207.49 18.08 207.157 17.6C206.837 17.1067 206.677 16.5533 206.677 15.94C206.677 15.34 206.817 14.8 207.097 14.32C207.39 13.84 207.864 13.46 208.517 13.18C209.17 12.9 210.037 12.76 211.117 12.76H214.217V14.42H211.297C210.444 14.42 209.87 14.56 209.577 14.84C209.284 15.1067 209.137 15.44 209.137 15.84C209.137 16.2933 209.317 16.6533 209.677 16.92C210.037 17.1867 210.537 17.32 211.177 17.32C211.79 17.32 212.337 17.18 212.817 16.9C213.31 16.62 213.664 16.2067 213.877 15.66L214.297 17.16C214.057 17.7867 213.624 18.2733 212.997 18.62C212.384 18.9667 211.604 19.14 210.657 19.14ZM219.585 19V8.32H222.085V19H219.585ZM220.845 6.56C220.379 6.56 219.992 6.41333 219.685 6.12C219.392 5.82667 219.245 5.47333 219.245 5.06C219.245 4.63333 219.392 4.28 219.685 4C219.992 3.70667 220.379 3.56 220.845 3.56C221.312 3.56 221.692 3.7 221.985 3.98C222.292 4.24667 222.445 4.58667 222.445 5C222.445 5.44 222.299 5.81333 222.005 6.12C221.712 6.41333 221.325 6.56 220.845 6.56ZM225.367 19V4.16H227.867V19H225.367ZM231.948 19.14C231.494 19.14 231.108 18.9867 230.788 18.68C230.468 18.36 230.308 17.96 230.308 17.48C230.308 16.9733 230.468 16.5733 230.788 16.28C231.108 15.9733 231.494 15.82 231.948 15.82C232.401 15.82 232.788 15.9733 233.108 16.28C233.428 16.5733 233.588 16.9733 233.588 17.48C233.588 17.96 233.428 18.36 233.108 18.68C232.788 18.9867 232.401 19.14 231.948 19.14ZM240.755 19.14C239.635 19.14 238.635 18.9067 237.755 18.44C236.888 17.96 236.208 17.3067 235.715 16.48C235.222 15.6533 234.975 14.7133 234.975 13.66C234.975 12.5933 235.222 11.6533 235.715 10.84C236.208 10.0133 236.888 9.36667 237.755 8.9C238.635 8.43333 239.635 8.2 240.755 8.2C241.795 8.2 242.708 8.41333 243.495 8.84C244.295 9.25333 244.902 9.86667 245.315 10.68L243.395 11.8C243.075 11.2933 242.682 10.92 242.215 10.68C241.762 10.44 241.268 10.32 240.735 10.32C240.122 10.32 239.568 10.4533 239.075 10.72C238.582 10.9867 238.195 11.3733 237.915 11.88C237.635 12.3733 237.495 12.9667 237.495 13.66C237.495 14.3533 237.635 14.9533 237.915 15.46C238.195 15.9533 238.582 16.3333 239.075 16.6C239.568 16.8667 240.122 17 240.735 17C241.268 17 241.762 16.88 242.215 16.64C242.682 16.4 243.075 16.0267 243.395 15.52L245.315 16.64C244.902 17.44 244.295 18.06 243.495 18.5C242.708 18.9267 241.795 19.14 240.755 19.14ZM252.12 19.14C251.026 19.14 250.053 18.9067 249.2 18.44C248.346 17.96 247.673 17.3067 247.18 16.48C246.686 15.6533 246.44 14.7133 246.44 13.66C246.44 12.5933 246.686 11.6533 247.18 10.84C247.673 10.0133 248.346 9.36667 249.2 8.9C250.053 8.43333 251.026 8.2 252.12 8.2C253.226 8.2 254.206 8.43333 255.06 8.9C255.926 9.36667 256.6 10.0067 257.08 10.82C257.573 11.6333 257.82 12.58 257.82 13.66C257.82 14.7133 257.573 15.6533 257.08 16.48C256.6 17.3067 255.926 17.96 255.06 18.44C254.206 18.9067 253.226 19.14 252.12 19.14ZM252.12 17C252.733 17 253.28 16.8667 253.76 16.6C254.24 16.3333 254.613 15.9467 254.88 15.44C255.16 14.9333 255.3 14.34 255.3 13.66C255.3 12.9667 255.16 12.3733 254.88 11.88C254.613 11.3733 254.24 10.9867 253.76 10.72C253.28 10.4533 252.74 10.32 252.14 10.32C251.526 10.32 250.98 10.4533 250.5 10.72C250.033 10.9867 249.66 11.3733 249.38 11.88C249.1 12.3733 248.96 12.9667 248.96 13.66C248.96 14.34 249.1 14.9333 249.38 15.44C249.66 15.9467 250.033 16.3333 250.5 16.6C250.98 16.8667 251.52 17 252.12 17ZM273.69 8.2C274.544 8.2 275.297 8.36667 275.95 8.7C276.617 9.03333 277.137 9.54667 277.51 10.24C277.884 10.92 278.07 11.8 278.07 12.88V19H275.57V13.2C275.57 12.2533 275.364 11.5467 274.95 11.08C274.537 10.6133 273.944 10.38 273.17 10.38C272.624 10.38 272.137 10.5 271.71 10.74C271.297 10.98 270.97 11.3333 270.73 11.8C270.504 12.2667 270.39 12.86 270.39 13.58V19H267.89V13.2C267.89 12.2533 267.684 11.5467 267.27 11.08C266.857 10.6133 266.264 10.38 265.49 10.38C264.944 10.38 264.457 10.5 264.03 10.74C263.617 10.98 263.29 11.3333 263.05 11.8C262.824 12.2667 262.71 12.86 262.71 13.58V19H260.21V8.32H262.59V11.16L262.17 10.32C262.53 9.62667 263.05 9.1 263.73 8.74C264.424 8.38 265.21 8.2 266.09 8.2C267.09 8.2 267.957 8.44667 268.69 8.94C269.437 9.43333 269.93 10.18 270.17 11.18L269.19 10.84C269.537 10.04 270.11 9.4 270.91 8.92C271.71 8.44 272.637 8.2 273.69 8.2Z" fill="white"/>
</svg>
