<svg width="38" height="37" viewBox="0 0 38 37" fill="none" xmlns="http://www.w3.org/2000/svg">
<path d="M19.346 3.3258C24.2752 3.3258 24.859 3.34742 26.7975 3.4339C28.5992 3.51317 29.572 3.81584 30.2206 4.06807C31.0782 4.39957 31.6979 4.80313 32.3393 5.44451C32.9879 6.0931 33.3843 6.70565 33.7158 7.56323C33.968 8.21181 34.2707 9.1919 34.3499 10.9863C34.4364 12.9321 34.458 13.5158 34.458 18.4378C34.458 23.3671 34.4364 23.9508 34.3499 25.8894C34.2707 27.691 33.968 28.6639 33.7158 29.3125C33.3843 30.17 32.9807 30.7898 32.3393 31.4312C31.6907 32.0798 31.0782 32.4761 30.2206 32.8076C29.572 33.0598 28.5919 33.3625 26.7975 33.4418C24.8518 33.5283 24.268 33.5499 19.346 33.5499C14.4167 33.5499 13.833 33.5283 11.8945 33.4418C10.0928 33.3625 9.11996 33.0598 8.47138 32.8076C7.6138 32.4761 6.99404 32.0726 6.35266 31.4312C5.70408 30.7826 5.30772 30.17 4.97622 29.3125C4.72399 28.6639 4.42132 27.6838 4.34205 25.8894C4.25557 23.9436 4.23395 23.3599 4.23395 18.4378C4.23395 13.5086 4.25557 12.9249 4.34205 10.9863C4.42132 9.18469 4.72399 8.21181 4.97622 7.56323C5.30772 6.70565 5.71129 6.08589 6.35266 5.44451C7.00125 4.79593 7.6138 4.39957 8.47138 4.06807C9.11996 3.81584 10.1 3.51317 11.8945 3.4339C13.833 3.34742 14.4167 3.3258 19.346 3.3258ZM19.346 0.00360107C14.3375 0.00360107 13.7105 0.0252206 11.7431 0.111699C9.78296 0.198177 8.43535 0.515263 7.26789 0.969273C6.04999 1.4449 5.01946 2.07187 3.99614 3.1024C2.96561 4.12572 2.33864 5.15625 1.86301 6.36695C1.409 7.54161 1.09191 8.88202 1.00544 10.8422C0.918958 12.8168 0.897339 13.4437 0.897339 18.4523C0.897339 23.4608 0.918958 24.0877 1.00544 26.0551C1.09191 28.0153 1.409 29.3629 1.86301 30.5304C2.33864 31.7483 2.96561 32.7788 3.99614 33.8021C5.01946 34.8254 6.04999 35.4596 7.26068 35.928C8.43535 36.382 9.77575 36.6991 11.7359 36.7856C13.7033 36.8721 14.3303 36.8937 19.3388 36.8937C24.3473 36.8937 24.9743 36.8721 26.9417 36.7856C28.9018 36.6991 30.2494 36.382 31.4169 35.928C32.6276 35.4596 33.6581 34.8254 34.6814 33.8021C35.7048 32.7788 36.3389 31.7483 36.8074 30.5376C37.2614 29.3629 37.5785 28.0225 37.6649 26.0623C37.7514 24.095 37.773 23.468 37.773 18.4595C37.773 13.4509 37.7514 12.824 37.6649 10.8566C37.5785 8.89643 37.2614 7.54881 36.8074 6.38136C36.3534 5.15625 35.7264 4.12572 34.6959 3.1024C33.6725 2.07908 32.642 1.4449 31.4313 0.976479C30.2566 0.52247 28.9162 0.205383 26.9561 0.118905C24.9815 0.0252206 24.3545 0.00360107 19.346 0.00360107Z" fill="#B79F84"/>
<path d="M19.3459 8.97571C14.114 8.97571 9.86938 13.2203 9.86938 18.4523C9.86938 23.6842 14.114 27.9288 19.3459 27.9288C24.5779 27.9288 28.8225 23.6842 28.8225 18.4523C28.8225 13.2203 24.5779 8.97571 19.3459 8.97571ZM19.3459 24.5994C15.9517 24.5994 13.1988 21.8465 13.1988 18.4523C13.1988 15.058 15.9517 12.3051 19.3459 12.3051C22.7402 12.3051 25.4931 15.058 25.4931 18.4523C25.4931 21.8465 22.7402 24.5994 19.3459 24.5994Z" fill="#B79F84"/>
<path d="M31.4097 8.60089C31.4097 9.826 30.4152 10.8133 29.1973 10.8133C27.9722 10.8133 26.9849 9.81879 26.9849 8.60089C26.9849 7.37578 27.9794 6.38849 29.1973 6.38849C30.4152 6.38849 31.4097 7.38299 31.4097 8.60089Z" fill="#B79F84"/>
</svg>
