<svg width="37" height="38" viewBox="0 0 37 38" fill="none" xmlns="http://www.w3.org/2000/svg">
<path d="M18.4595 4.21954C23.3887 4.21954 23.9724 4.24116 25.911 4.32764C27.7126 4.40691 28.6855 4.70958 29.3341 4.96181C30.1917 5.29331 30.8114 5.69687 31.4528 6.33825C32.1014 6.98684 32.4977 7.59939 32.8292 8.45696C33.0815 9.10555 33.3841 10.0856 33.4634 11.8801C33.5499 13.8258 33.5715 14.4095 33.5715 19.3316C33.5715 24.2608 33.5499 24.8446 33.4634 26.7831C33.3841 28.5847 33.0815 29.5576 32.8292 30.2062C32.4977 31.0638 32.0942 31.6835 31.4528 32.3249C30.8042 32.9735 30.1917 33.3699 29.3341 33.7014C28.6855 33.9536 27.7054 34.2563 25.911 34.3355C23.9652 34.422 23.3815 34.4436 18.4595 34.4436C13.5302 34.4436 12.9465 34.422 11.0079 34.3355C9.20631 34.2563 8.23343 33.9536 7.58484 33.7014C6.72727 33.3699 6.10751 32.9663 5.46613 32.3249C4.81754 31.6763 4.42119 31.0638 4.08969 30.2062C3.83746 29.5576 3.53479 28.5775 3.45551 26.7831C3.36904 24.8374 3.34742 24.2536 3.34742 19.3316C3.34742 14.4023 3.36904 13.8186 3.45551 11.8801C3.53479 10.0784 3.83746 9.10555 4.08969 8.45696C4.42119 7.59939 4.82475 6.97963 5.46613 6.33825C6.11471 5.68967 6.72727 5.29331 7.58484 4.96181C8.23343 4.70958 9.21351 4.40691 11.0079 4.32764C12.9465 4.24116 13.5302 4.21954 18.4595 4.21954ZM18.4595 0.897339C13.4509 0.897339 12.824 0.918958 10.8566 1.00544C8.89643 1.09191 7.54881 1.409 6.38136 1.86301C5.16346 2.33864 4.13293 2.96561 3.1096 3.99614C2.07907 5.01946 1.4521 6.04999 0.976475 7.26068C0.522465 8.43535 0.205379 9.77575 0.118901 11.7359C0.0324227 13.7105 0.0108032 14.3375 0.0108032 19.346C0.0108032 24.3545 0.0324227 24.9815 0.118901 26.9489C0.205379 28.909 0.522465 30.2566 0.976475 31.4241C1.4521 32.642 2.07907 33.6725 3.1096 34.6959C4.13293 35.7192 5.16346 36.3534 6.37415 36.8218C7.54881 37.2758 8.88922 37.5929 10.8494 37.6793C12.8168 37.7658 13.4437 37.7874 18.4523 37.7874C23.4608 37.7874 24.0877 37.7658 26.0551 37.6793C28.0153 37.5929 29.3629 37.2758 30.5304 36.8218C31.7411 36.3534 32.7716 35.7192 33.7949 34.6959C34.8182 33.6725 35.4524 32.642 35.9208 31.4313C36.3748 30.2566 36.6919 28.9162 36.7784 26.9561C36.8649 24.9887 36.8865 24.3617 36.8865 19.3532C36.8865 14.3447 36.8649 13.7177 36.7784 11.7503C36.6919 9.79017 36.3748 8.44255 35.9208 7.2751C35.4668 6.04999 34.8399 5.01946 33.8093 3.99614C32.786 2.97281 31.7555 2.33864 30.5448 1.87022C29.3701 1.41621 28.0297 1.09912 26.0695 1.01264C24.0949 0.918958 23.468 0.897339 18.4595 0.897339Z" fill="white"/>
<path d="M18.4595 9.86945C13.2275 9.86945 8.98291 14.1141 8.98291 19.346C8.98291 24.5779 13.2275 28.8226 18.4595 28.8226C23.6914 28.8226 27.936 24.5779 27.936 19.346C27.936 14.1141 23.6914 9.86945 18.4595 9.86945ZM18.4595 25.4931C15.0652 25.4931 12.3123 22.7403 12.3123 19.346C12.3123 15.9517 15.0652 13.1989 18.4595 13.1989C21.8537 13.1989 24.6066 15.9517 24.6066 19.346C24.6066 22.7403 21.8537 25.4931 18.4595 25.4931Z" fill="white"/>
<path d="M30.5231 9.49463C30.5231 10.7197 29.5286 11.707 28.3107 11.707C27.0856 11.707 26.0983 10.7125 26.0983 9.49463C26.0983 8.26952 27.0928 7.28223 28.3107 7.28223C29.5286 7.28223 30.5231 8.27673 30.5231 9.49463Z" fill="white"/>
</svg>
