<svg width="35" height="35" viewBox="0 0 35 35" fill="none" xmlns="http://www.w3.org/2000/svg">
<path fill-rule="evenodd" clip-rule="evenodd" d="M21.4327 0.800825C21.0555 0.746746 20.6765 0.858284 20.375 1.09826C20.0651 1.34161 19.8715 1.69313 19.8294 2.08689C19.7401 2.88286 20.3144 3.60279 21.1093 3.69236C26.5914 4.30412 30.8524 8.57467 31.4688 14.0738C31.5514 14.8106 32.1695 15.3666 32.9071 15.3666C32.9627 15.3666 33.0166 15.3633 33.0722 15.3565C33.4579 15.3143 33.8015 15.1233 34.044 14.8191C34.2848 14.5149 34.3943 14.1363 34.3505 13.7493C33.5825 6.88808 28.2722 1.563 21.4327 0.800825ZM21.538 6.68935C20.7329 6.54064 19.9936 7.05439 19.8403 7.84022C19.687 8.62606 20.2024 9.3933 20.9855 9.54709C23.3434 10.0068 25.164 11.8319 25.6255 14.1979V14.1996C25.7569 14.8806 26.3565 15.3758 27.047 15.3758C27.1396 15.3758 27.2322 15.3673 27.3265 15.3504C28.1097 15.1933 28.6251 14.4277 28.4718 13.6402C27.783 10.1065 25.063 7.37717 21.538 6.68935ZM24.2133 22.9252C24.9768 22.485 25.8391 21.9878 26.9269 22.2191C27.9122 22.427 31.2704 25.1529 32.19 26.0976C32.793 26.7161 33.1281 27.355 33.1803 27.9938C33.2713 30.5 29.8658 33.3611 29.246 33.7177C28.4225 34.3109 27.4642 34.61 26.388 34.61C25.2882 34.61 24.0621 34.2973 22.7248 33.6737C15.4693 30.6453 4.38562 19.7805 1.45512 12.5813C0.239133 9.90098 0.230712 7.69051 1.43491 6.02927C1.91491 5.2502 4.65173 1.99363 7.10223 2.09672C7.75402 2.15249 8.38727 2.4871 9.00874 3.09549C9.94852 4.01652 12.6062 7.38462 12.8117 8.37325C13.039 9.47173 12.5405 10.3454 12.0976 11.1127C12.0031 11.2776 11.8758 11.4734 11.7363 11.6878C11.2071 12.5016 10.5026 13.5848 10.7519 14.2763C12.5388 18.6635 16.6668 22.4912 21.0558 24.2894C21.7345 24.536 22.8171 23.8266 23.6283 23.2949C23.8397 23.1564 24.0326 23.03 24.1951 22.9357L24.2133 22.9252Z" fill="white"/>
</svg>
