<svg width="208" height="25" viewBox="0 0 208 25" fill="none" xmlns="http://www.w3.org/2000/svg">
<path d="M20.2085 15.474C19.3689 15.2934 18.7047 15.6832 18.1166 16.0237C17.5142 16.3745 16.3689 17.3036 15.7125 17.0658C12.3514 15.6819 9.19016 12.74 7.82173 9.36547C7.58055 8.69497 8.5053 7.54239 8.85354 6.93297C9.19145 6.34303 9.57322 5.67254 9.3991 4.82662C9.24175 4.06646 7.20652 1.47673 6.48684 0.768554C6.01221 0.300766 5.52597 0.043482 5.02684 0.00190081C3.15025 -0.0786628 1.0544 2.42531 0.686816 3.02433C-0.234069 4.30166 -0.22891 6.00129 0.702293 8.06216C2.94646 13.5977 11.4343 21.9516 16.9906 24.2801C18.016 24.7596 18.9536 25 19.7958 25C20.62 25 21.3538 24.77 21.9845 24.3139C22.4604 24.0397 25.067 21.8398 24.9987 19.9128C24.9574 19.4216 24.7007 18.9304 24.239 18.4549C23.5361 17.7285 20.963 15.6325 20.2085 15.474Z" fill="#B79F84"/>
<path d="M43.84 16.5V7.5H45.98V16.5H43.84ZM40.3 13V11H49.52V13H40.3ZM56.6862 19.2C55.6996 19.2 54.7329 19.06 53.7863 18.78C52.8529 18.4867 52.0663 18.0867 51.4263 17.58L52.5463 15.56C53.0529 15.9733 53.6663 16.3067 54.3863 16.56C55.1063 16.8133 55.8596 16.94 56.6463 16.94C57.5796 16.94 58.3063 16.7533 58.8263 16.38C59.3463 15.9933 59.6063 15.4733 59.6063 14.82C59.6063 14.18 59.3663 13.6733 58.8863 13.3C58.4063 12.9267 57.6329 12.74 56.5663 12.74H55.2863V10.96L59.2863 6.2L59.6263 7.18H52.1063V5H61.6463V6.74L57.6463 11.5L56.2863 10.7H57.0663C58.7863 10.7 60.0729 11.0867 60.9263 11.86C61.7929 12.62 62.2263 13.6 62.2263 14.8C62.2263 15.5867 62.0263 16.3133 61.6263 16.98C61.2263 17.6467 60.6129 18.1867 59.7863 18.6C58.9729 19 57.9396 19.2 56.6862 19.2ZM70.5469 19.2C69.3869 19.2 68.3802 19.0267 67.5269 18.68C66.6735 18.3333 66.0135 17.8467 65.5469 17.22C65.0802 16.58 64.8469 15.8333 64.8469 14.98C64.8469 14.1267 65.0735 13.4067 65.5269 12.82C65.9802 12.2333 66.6335 11.7867 67.4869 11.48C68.3402 11.1733 69.3602 11.02 70.5469 11.02C71.7335 11.02 72.7535 11.1733 73.6069 11.48C74.4735 11.7867 75.1335 12.24 75.5869 12.84C76.0535 13.4267 76.2869 14.14 76.2869 14.98C76.2869 15.8333 76.0469 16.58 75.5669 17.22C75.1002 17.8467 74.4335 18.3333 73.5669 18.68C72.7135 19.0267 71.7069 19.2 70.5469 19.2ZM70.5469 17.16C71.5069 17.16 72.2669 16.96 72.8269 16.56C73.3869 16.16 73.6669 15.6067 73.6669 14.9C73.6669 14.2067 73.3869 13.66 72.8269 13.26C72.2669 12.86 71.5069 12.66 70.5469 12.66C69.5869 12.66 68.8335 12.86 68.2869 13.26C67.7402 13.66 67.4669 14.2067 67.4669 14.9C67.4669 15.6067 67.7402 16.16 68.2869 16.56C68.8335 16.96 69.5869 17.16 70.5469 17.16ZM70.5469 12.38C69.4669 12.38 68.5402 12.24 67.7669 11.96C66.9935 11.6667 66.3935 11.2467 65.9669 10.7C65.5535 10.14 65.3469 9.47333 65.3469 8.7C65.3469 7.9 65.5602 7.21333 65.9869 6.64C66.4269 6.05333 67.0402 5.6 67.8269 5.28C68.6135 4.96 69.5202 4.8 70.5469 4.8C71.5869 4.8 72.5002 4.96 73.2869 5.28C74.0735 5.6 74.6869 6.05333 75.1269 6.64C75.5669 7.21333 75.7869 7.9 75.7869 8.7C75.7869 9.47333 75.5735 10.14 75.1469 10.7C74.7335 11.2467 74.1335 11.6667 73.3469 11.96C72.5602 12.24 71.6269 12.38 70.5469 12.38ZM70.5469 10.78C71.3735 10.78 72.0269 10.6067 72.5069 10.26C72.9869 9.9 73.2269 9.42 73.2269 8.82C73.2269 8.19333 72.9802 7.70667 72.4869 7.36C71.9935 7.01333 71.3469 6.84 70.5469 6.84C69.7469 6.84 69.1069 7.01333 68.6269 7.36C68.1469 7.70667 67.9069 8.19333 67.9069 8.82C67.9069 9.42 68.1402 9.9 68.6069 10.26C69.0869 10.6067 69.7335 10.78 70.5469 10.78ZM84.8138 19.2C83.7071 19.2 82.7071 18.92 81.8138 18.36C80.9338 17.8 80.2404 16.9867 79.7338 15.92C79.2271 14.84 78.9738 13.5333 78.9738 12C78.9738 10.4667 79.2271 9.16667 79.7338 8.1C80.2404 7.02 80.9338 6.2 81.8138 5.64C82.7071 5.08 83.7071 4.8 84.8138 4.8C85.9338 4.8 86.9338 5.08 87.8138 5.64C88.6938 6.2 89.3871 7.02 89.8938 8.1C90.4138 9.16667 90.6738 10.4667 90.6738 12C90.6738 13.5333 90.4138 14.84 89.8938 15.92C89.3871 16.9867 88.6938 17.8 87.8138 18.36C86.9338 18.92 85.9338 19.2 84.8138 19.2ZM84.8138 16.94C85.4671 16.94 86.0338 16.7667 86.5138 16.42C86.9938 16.06 87.3671 15.5133 87.6338 14.78C87.9138 14.0467 88.0538 13.12 88.0538 12C88.0538 10.8667 87.9138 9.94 87.6338 9.22C87.3671 8.48667 86.9938 7.94667 86.5138 7.6C86.0338 7.24 85.4671 7.06 84.8138 7.06C84.1871 7.06 83.6271 7.24 83.1338 7.6C82.6538 7.94667 82.2738 8.48667 81.9938 9.22C81.7271 9.94 81.5938 10.8667 81.5938 12C81.5938 13.12 81.7271 14.0467 81.9938 14.78C82.2738 15.5133 82.6538 16.06 83.1338 16.42C83.6271 16.7667 84.1871 16.94 84.8138 16.94ZM98.1508 4.8C99.4308 4.8 100.517 5.07333 101.411 5.62C102.317 6.15333 103.011 6.93333 103.491 7.96C103.971 8.98667 104.211 10.2533 104.211 11.76C104.211 13.36 103.917 14.7133 103.331 15.82C102.757 16.9267 101.957 17.7667 100.931 18.34C99.9041 18.9133 98.7108 19.2 97.3508 19.2C96.6441 19.2 95.9708 19.1267 95.3308 18.98C94.6908 18.8333 94.1374 18.6067 93.6708 18.3L94.6308 16.34C95.0174 16.5933 95.4374 16.7733 95.8908 16.88C96.3441 16.9733 96.8108 17.02 97.2908 17.02C98.6108 17.02 99.6574 16.6133 100.431 15.8C101.204 14.9867 101.591 13.7867 101.591 12.2C101.591 11.9467 101.584 11.6533 101.571 11.32C101.557 10.9733 101.511 10.6267 101.431 10.28L102.231 11.16C102.004 11.7067 101.677 12.1667 101.251 12.54C100.824 12.9 100.324 13.1733 99.7508 13.36C99.1774 13.5467 98.5441 13.64 97.8508 13.64C96.9441 13.64 96.1241 13.4667 95.3908 13.12C94.6708 12.76 94.0974 12.26 93.6708 11.62C93.2441 10.9667 93.0308 10.2067 93.0308 9.34C93.0308 8.40667 93.2574 7.60667 93.7108 6.94C94.1641 6.26 94.7774 5.73333 95.5508 5.36C96.3374 4.98667 97.2041 4.8 98.1508 4.8ZM98.2908 6.84C97.7574 6.84 97.2841 6.94 96.8708 7.14C96.4574 7.32667 96.1308 7.6 95.8908 7.96C95.6641 8.30667 95.5508 8.72667 95.5508 9.22C95.5508 9.95333 95.8041 10.5333 96.3108 10.96C96.8174 11.3867 97.4974 11.6 98.3508 11.6C98.9108 11.6 99.4041 11.5 99.8308 11.3C100.257 11.0867 100.591 10.8 100.831 10.44C101.071 10.0667 101.191 9.65333 101.191 9.2C101.191 8.76 101.077 8.36667 100.851 8.02C100.624 7.66 100.297 7.37333 99.8708 7.16C99.4441 6.94667 98.9174 6.84 98.2908 6.84ZM111.175 19.2C110.188 19.2 109.221 19.06 108.275 18.78C107.341 18.4867 106.555 18.0867 105.915 17.58L107.035 15.56C107.541 15.9733 108.155 16.3067 108.875 16.56C109.595 16.8133 110.348 16.94 111.135 16.94C112.068 16.94 112.795 16.7533 113.315 16.38C113.835 15.9933 114.095 15.4733 114.095 14.82C114.095 14.18 113.855 13.6733 113.375 13.3C112.895 12.9267 112.121 12.74 111.055 12.74H109.775V10.96L113.775 6.2L114.115 7.18H106.595V5H116.135V6.74L112.135 11.5L110.775 10.7H111.555C113.275 10.7 114.561 11.0867 115.415 11.86C116.281 12.62 116.715 13.6 116.715 14.8C116.715 15.5867 116.515 16.3133 116.115 16.98C115.715 17.6467 115.101 18.1867 114.275 18.6C113.461 19 112.428 19.2 111.175 19.2ZM125.255 19.2C124.148 19.2 123.148 18.92 122.255 18.36C121.375 17.8 120.682 16.9867 120.175 15.92C119.668 14.84 119.415 13.5333 119.415 12C119.415 10.4667 119.668 9.16667 120.175 8.1C120.682 7.02 121.375 6.2 122.255 5.64C123.148 5.08 124.148 4.8 125.255 4.8C126.375 4.8 127.375 5.08 128.255 5.64C129.135 6.2 129.828 7.02 130.335 8.1C130.855 9.16667 131.115 10.4667 131.115 12C131.115 13.5333 130.855 14.84 130.335 15.92C129.828 16.9867 129.135 17.8 128.255 18.36C127.375 18.92 126.375 19.2 125.255 19.2ZM125.255 16.94C125.908 16.94 126.475 16.7667 126.955 16.42C127.435 16.06 127.808 15.5133 128.075 14.78C128.355 14.0467 128.495 13.12 128.495 12C128.495 10.8667 128.355 9.94 128.075 9.22C127.808 8.48667 127.435 7.94667 126.955 7.6C126.475 7.24 125.908 7.06 125.255 7.06C124.628 7.06 124.068 7.24 123.575 7.6C123.095 7.94667 122.715 8.48667 122.435 9.22C122.168 9.94 122.035 10.8667 122.035 12C122.035 13.12 122.168 14.0467 122.435 14.78C122.715 15.5133 123.095 16.06 123.575 16.42C124.068 16.7667 124.628 16.94 125.255 16.94ZM139.712 19.2C138.606 19.2 137.606 18.92 136.712 18.36C135.832 17.8 135.139 16.9867 134.632 15.92C134.126 14.84 133.872 13.5333 133.872 12C133.872 10.4667 134.126 9.16667 134.632 8.1C135.139 7.02 135.832 6.2 136.712 5.64C137.606 5.08 138.606 4.8 139.712 4.8C140.832 4.8 141.832 5.08 142.712 5.64C143.592 6.2 144.286 7.02 144.792 8.1C145.312 9.16667 145.572 10.4667 145.572 12C145.572 13.5333 145.312 14.84 144.792 15.92C144.286 16.9867 143.592 17.8 142.712 18.36C141.832 18.92 140.832 19.2 139.712 19.2ZM139.712 16.94C140.366 16.94 140.932 16.7667 141.412 16.42C141.892 16.06 142.266 15.5133 142.532 14.78C142.812 14.0467 142.952 13.12 142.952 12C142.952 10.8667 142.812 9.94 142.532 9.22C142.266 8.48667 141.892 7.94667 141.412 7.6C140.932 7.24 140.366 7.06 139.712 7.06C139.086 7.06 138.526 7.24 138.032 7.6C137.552 7.94667 137.172 8.48667 136.892 9.22C136.626 9.94 136.492 10.8667 136.492 12C136.492 13.12 136.626 14.0467 136.892 14.78C137.172 15.5133 137.552 16.06 138.032 16.42C138.526 16.7667 139.086 16.94 139.712 16.94ZM152.969 19.2C151.983 19.2 151.016 19.06 150.069 18.78C149.136 18.4867 148.349 18.0867 147.709 17.58L148.809 15.56C149.316 15.9733 149.929 16.3067 150.649 16.56C151.383 16.8133 152.143 16.94 152.929 16.94C153.849 16.94 154.569 16.7467 155.089 16.36C155.623 15.9733 155.889 15.4533 155.889 14.8C155.889 14.36 155.776 13.9733 155.549 13.64C155.336 13.3067 154.949 13.0533 154.389 12.88C153.843 12.7067 153.089 12.62 152.129 12.62H148.749L149.469 5H157.689V7.18H150.429L151.789 5.94L151.249 11.64L149.889 10.42H152.709C154.096 10.42 155.209 10.6067 156.049 10.98C156.903 11.34 157.523 11.8467 157.909 12.5C158.309 13.14 158.509 13.8733 158.509 14.7C158.509 15.5133 158.309 16.26 157.909 16.94C157.509 17.62 156.896 18.1667 156.069 18.58C155.256 18.9933 154.223 19.2 152.969 19.2ZM163.249 19V6L164.389 7.18H160.289V5H165.849V19H163.249ZM169.446 19V17.26L175.006 11.98C175.473 11.54 175.819 11.1533 176.046 10.82C176.273 10.4867 176.419 10.18 176.486 9.9C176.566 9.60667 176.606 9.33333 176.606 9.08C176.606 8.44 176.386 7.94667 175.946 7.6C175.506 7.24 174.859 7.06 174.006 7.06C173.326 7.06 172.706 7.18 172.146 7.42C171.599 7.66 171.126 8.02667 170.726 8.52L168.906 7.12C169.453 6.38667 170.186 5.82 171.106 5.42C172.039 5.00667 173.079 4.8 174.226 4.8C175.239 4.8 176.119 4.96667 176.866 5.3C177.626 5.62 178.206 6.08 178.606 6.68C179.019 7.28 179.226 7.99333 179.226 8.82C179.226 9.27333 179.166 9.72667 179.046 10.18C178.926 10.62 178.699 11.0867 178.366 11.58C178.033 12.0733 177.546 12.6267 176.906 13.24L172.126 17.78L171.586 16.8H179.766V19H169.446ZM188.327 19.2C187.06 19.2 185.973 18.9333 185.067 18.4C184.16 17.8533 183.467 17.0667 182.987 16.04C182.507 15.0133 182.267 13.7467 182.267 12.24C182.267 10.64 182.553 9.28667 183.127 8.18C183.713 7.07333 184.52 6.23333 185.547 5.66C186.587 5.08667 187.78 4.8 189.127 4.8C189.833 4.8 190.507 4.87333 191.147 5.02C191.8 5.16667 192.353 5.39333 192.807 5.7L191.847 7.66C191.46 7.40667 191.04 7.23333 190.587 7.14C190.147 7.03333 189.68 6.98 189.187 6.98C187.867 6.98 186.82 7.38667 186.047 8.2C185.273 9.01333 184.887 10.2133 184.887 11.8C184.887 12.0533 184.893 12.3533 184.907 12.7C184.92 13.0333 184.967 13.3733 185.047 13.72L184.247 12.84C184.487 12.2933 184.813 11.84 185.227 11.48C185.653 11.1067 186.153 10.8267 186.727 10.64C187.313 10.4533 187.947 10.36 188.627 10.36C189.547 10.36 190.367 10.54 191.087 10.9C191.807 11.2467 192.38 11.7467 192.807 12.4C193.233 13.04 193.447 13.7933 193.447 14.66C193.447 15.58 193.22 16.38 192.767 17.06C192.313 17.74 191.7 18.2667 190.927 18.64C190.153 19.0133 189.287 19.2 188.327 19.2ZM188.187 17.16C188.72 17.16 189.193 17.0667 189.607 16.88C190.02 16.68 190.34 16.4 190.567 16.04C190.807 15.68 190.927 15.26 190.927 14.78C190.927 14.0467 190.673 13.4667 190.167 13.04C189.66 12.6133 188.98 12.4 188.127 12.4C187.567 12.4 187.073 12.5067 186.647 12.72C186.233 12.92 185.9 13.2 185.647 13.56C185.407 13.92 185.287 14.3333 185.287 14.8C185.287 15.2267 185.4 15.62 185.627 15.98C185.853 16.34 186.18 16.6267 186.607 16.84C187.047 17.0533 187.573 17.16 188.187 17.16ZM201.866 19.2C200.599 19.2 199.512 18.9333 198.606 18.4C197.699 17.8533 197.006 17.0667 196.526 16.04C196.046 15.0133 195.806 13.7467 195.806 12.24C195.806 10.64 196.092 9.28667 196.666 8.18C197.252 7.07333 198.059 6.23333 199.086 5.66C200.126 5.08667 201.319 4.8 202.666 4.8C203.372 4.8 204.046 4.87333 204.686 5.02C205.339 5.16667 205.892 5.39333 206.346 5.7L205.386 7.66C204.999 7.40667 204.579 7.23333 204.126 7.14C203.686 7.03333 203.219 6.98 202.726 6.98C201.406 6.98 200.359 7.38667 199.586 8.2C198.812 9.01333 198.426 10.2133 198.426 11.8C198.426 12.0533 198.432 12.3533 198.446 12.7C198.459 13.0333 198.506 13.3733 198.586 13.72L197.786 12.84C198.026 12.2933 198.352 11.84 198.766 11.48C199.192 11.1067 199.692 10.8267 200.266 10.64C200.852 10.4533 201.486 10.36 202.166 10.36C203.086 10.36 203.906 10.54 204.626 10.9C205.346 11.2467 205.919 11.7467 206.346 12.4C206.772 13.04 206.986 13.7933 206.986 14.66C206.986 15.58 206.759 16.38 206.306 17.06C205.852 17.74 205.239 18.2667 204.466 18.64C203.692 19.0133 202.826 19.2 201.866 19.2ZM201.726 17.16C202.259 17.16 202.732 17.0667 203.146 16.88C203.559 16.68 203.879 16.4 204.106 16.04C204.346 15.68 204.466 15.26 204.466 14.78C204.466 14.0467 204.212 13.4667 203.706 13.04C203.199 12.6133 202.519 12.4 201.666 12.4C201.106 12.4 200.612 12.5067 200.186 12.72C199.772 12.92 199.439 13.2 199.186 13.56C198.946 13.92 198.826 14.3333 198.826 14.8C198.826 15.2267 198.939 15.62 199.166 15.98C199.392 16.34 199.719 16.6267 200.146 16.84C200.586 17.0533 201.112 17.16 201.726 17.16Z" fill="white"/>
</svg>
