<svg width="37" height="30" viewBox="0 0 37 30" fill="none" xmlns="http://www.w3.org/2000/svg">
<path d="M11.7739 29.8973C25.3555 29.8973 32.7861 18.739 32.7861 9.06551C32.7861 8.75182 32.7791 8.43116 32.765 8.11747C34.2105 7.08109 35.4579 5.79739 36.4487 4.32669C35.1025 4.92051 33.6731 5.30832 32.2095 5.47689C33.7506 4.56108 34.9045 3.12238 35.4573 1.4275C34.0075 2.27931 32.422 2.88019 30.7688 3.20438C29.6549 2.03096 28.1821 1.25402 26.5782 0.99368C24.9742 0.733336 23.3285 1.00409 21.8953 1.76408C20.4621 2.52407 19.3214 3.73096 18.6494 5.19817C17.9775 6.66538 17.8118 8.31117 18.178 9.88111C15.2424 9.73506 12.3706 8.97902 9.74864 7.66202C7.12671 6.34501 4.81321 4.49643 2.95812 2.23612C2.01527 3.84776 1.72675 5.75485 2.15122 7.56981C2.57568 9.38476 3.68126 10.9714 5.24328 12.0072C4.07061 11.9703 2.92363 11.6573 1.89711 11.094V11.1847C1.89606 12.876 2.48582 14.5154 3.56613 15.8244C4.64645 17.1333 6.15065 18.0309 7.82304 18.3647C6.73675 18.6593 5.59664 18.7023 4.49094 18.4902C4.96285 19.9447 5.88103 21.2169 7.11733 22.1291C8.35362 23.0414 9.84635 23.5482 11.3872 23.5789C8.77131 25.6161 5.53993 26.721 2.21351 26.7158C1.6236 26.7149 1.03427 26.6791 0.448669 26.6085C3.82795 28.7578 7.75897 29.8994 11.7739 29.8973Z" fill="white"/>
</svg>
