<svg width="37" height="30" viewBox="0 0 37 30" fill="none" xmlns="http://www.w3.org/2000/svg">
<path d="M12.2226 29.9487C25.8041 29.9487 33.2348 18.7904 33.2348 9.11684C33.2348 8.80315 33.2277 8.48249 33.2137 8.1688C34.6591 7.13242 35.9066 5.84873 36.8973 4.37802C35.5511 4.97184 34.1218 5.35965 32.6582 5.52822C34.1993 4.61241 35.3531 3.17371 35.9059 1.47883C34.4562 2.33064 32.8707 2.93152 31.2175 3.25571C30.1036 2.08229 28.6308 1.30535 27.0269 1.04501C25.4229 0.784666 23.7771 1.05542 22.344 1.81541C20.9108 2.5754 19.77 3.78229 19.0981 5.2495C18.4262 6.71671 18.2605 8.3625 18.6266 9.93244C15.6911 9.78639 12.8192 9.03035 10.1973 7.71335C7.57538 6.39634 5.26188 4.54776 3.40679 2.28745C2.46394 3.89909 2.17542 5.80618 2.59988 7.62114C3.02435 9.43609 4.12993 11.0227 5.69195 12.0586C4.51928 12.0216 3.3723 11.7086 2.34578 11.1454V11.236C2.34473 12.9273 2.93449 14.5667 4.0148 15.8757C5.09512 17.1846 6.59932 18.0823 8.27171 18.416C7.18542 18.7107 6.04531 18.7536 4.9396 18.5415C5.41152 19.996 6.3297 21.2682 7.566 22.1804C8.80229 23.0927 10.295 23.5996 11.8359 23.6302C9.21998 25.6674 5.9886 26.7724 2.66218 26.7672C2.07227 26.7663 1.48294 26.7304 0.897339 26.6598C4.27662 28.8092 8.20764 29.9508 12.2226 29.9487Z" fill="#B79F84"/>
</svg>
